<?xml version="1.0" encoding="utf-8" ?>
<svg xmlns="http://www.w3.org/2000/svg" xmlns:xlink="http://www.w3.org/1999/xlink" width="1024" height="1024">
	<path fill="#121212" d="M433.462 888.855C386.879 877.811 347.118 862.894 306.33 837.44Q302.362 834.948 298.455 832.36Q294.548 829.773 290.706 827.091Q286.863 824.409 283.087 821.635Q279.311 818.86 275.603 815.995Q271.896 813.129 268.259 810.174Q264.622 807.22 261.058 804.178Q257.494 801.135 254.005 798.007Q250.516 794.879 247.104 791.668Q243.692 788.456 240.359 785.162Q237.026 781.868 233.774 778.494Q230.522 775.12 227.353 771.668Q224.184 768.216 221.1 764.689Q218.016 761.161 215.019 757.559Q212.022 753.957 209.113 750.283Q206.204 746.609 203.385 742.866Q200.566 739.123 197.839 735.312Q195.113 731.502 192.479 727.626Q189.846 723.75 187.307 719.811Q184.769 715.872 182.327 711.873Q179.884 707.874 177.54 703.817Q175.196 699.759 172.952 695.646Q170.707 691.533 168.563 687.366Q166.419 683.2 164.376 678.982Q162.334 674.765 160.395 670.499Q158.456 666.233 156.621 661.921Q154.786 657.61 153.057 653.255Q151.327 648.9 149.704 644.504Q148.081 640.108 146.565 635.674Q145.05 631.24 143.642 626.771Q142.234 622.301 140.936 617.799Q139.637 613.296 138.449 608.764Q137.26 604.231 136.182 599.671Q135.11 595.099 134.15 590.502Q133.19 585.905 132.344 581.286Q131.497 576.667 130.764 572.028Q130.032 567.39 129.413 562.735Q128.795 558.08 128.291 553.411Q127.787 548.742 127.397 544.062Q127.008 539.382 126.734 534.694Q126.46 530.006 126.301 525.312Q126.143 520.619 126.099 515.923Q126.056 511.227 126.128 506.532Q126.2 501.836 126.387 497.144Q126.574 492.452 126.877 487.765Q127.179 483.079 127.597 478.402Q128.015 473.724 128.547 469.059Q129.079 464.393 129.726 459.741Q130.373 455.09 131.134 450.456Q131.895 445.822 132.769 441.208Q133.644 436.594 134.632 432.003Q135.619 427.412 136.719 422.847Q137.82 418.282 139.032 413.745Q140.243 409.208 141.567 404.702Q142.89 400.196 144.323 395.724Q145.756 391.252 147.299 386.817Q148.842 382.381 150.493 377.985Q152.145 373.589 153.904 369.235Q155.662 364.881 157.528 360.571Q159.393 356.261 161.363 351.999Q163.334 347.736 165.409 343.523Q167.484 339.31 169.661 335.15Q171.839 330.989 174.118 326.883Q176.397 322.777 178.777 318.729Q181.156 314.68 183.634 310.691Q186.137 306.63 188.741 302.632Q191.344 298.634 194.045 294.701Q196.746 290.769 199.543 286.904Q202.341 283.04 205.233 279.246Q208.125 275.451 211.11 271.73Q214.095 268.008 217.171 264.362Q220.247 260.715 223.412 257.145Q226.578 253.576 229.83 250.086Q233.083 246.595 236.42 243.187Q239.758 239.778 243.179 236.453Q246.6 233.127 250.102 229.888Q253.605 226.648 257.186 223.496Q260.767 220.344 264.425 217.281Q268.083 214.219 271.815 211.247Q275.548 208.276 279.353 205.398Q283.157 202.52 287.032 199.736Q290.907 196.953 294.849 194.266Q298.792 191.58 302.799 188.991Q306.807 186.403 310.877 183.914Q314.947 181.426 319.078 179.039Q323.209 176.652 327.397 174.367Q331.585 172.083 335.829 169.903Q340.072 167.723 344.368 165.648Q348.664 163.573 353.01 161.605Q357.357 159.638 361.75 157.778Q366.143 155.918 370.581 154.167Q375.019 152.417 379.499 150.776Q383.979 149.136 388.498 147.607Q393.017 146.077 397.573 144.66Q402.128 143.243 406.717 141.939Q411.306 140.635 415.926 139.445Q420.546 138.255 425.194 137.179Q429.842 136.116 434.515 135.168Q439.188 134.22 443.882 133.388Q448.577 132.557 453.291 131.842Q458.005 131.127 462.736 130.529Q467.466 129.931 472.21 129.451Q476.953 128.97 481.708 128.608Q486.462 128.245 491.223 128Q495.985 127.756 500.751 127.629Q505.518 127.503 510.286 127.495Q515.054 127.486 519.82 127.596Q524.587 127.706 529.35 127.935Q534.112 128.163 538.867 128.509Q543.623 128.855 548.368 129.319Q553.114 129.783 557.846 130.365Q562.578 130.946 567.295 131.645Q572.011 132.344 576.709 133.159Q581.407 133.974 586.083 134.906Q590.759 135.838 595.41 136.885Q600.062 137.932 604.686 139.095Q609.31 140.257 613.904 141.534Q618.498 142.81 623.059 144.201Q627.62 145.591 632.144 147.094Q636.669 148.596 641.156 150.211Q645.642 151.826 650.087 153.551Q654.532 155.276 658.932 157.111Q663.333 158.946 667.687 160.89Q672.041 162.833 676.345 164.884Q680.649 166.935 684.902 169.092Q689.154 171.249 693.351 173.511Q697.548 175.773 701.688 178.138Q705.828 180.503 709.908 182.97Q713.988 185.437 718.006 188.005Q721.993 190.562 725.917 193.215Q729.841 195.868 733.699 198.617Q737.557 201.365 741.347 204.206Q745.137 207.047 748.857 209.98Q752.576 212.913 756.223 215.936Q759.87 218.958 763.443 222.069Q767.015 225.179 770.51 228.376Q774.006 231.573 777.422 234.853Q780.839 238.134 784.174 241.497Q787.51 244.861 790.762 248.304Q794.015 251.748 797.183 255.269Q800.35 258.791 803.431 262.389Q806.512 265.987 809.505 269.658Q812.497 273.33 815.399 277.074Q818.301 280.818 821.111 284.631Q823.921 288.444 826.637 292.325Q829.353 296.205 831.974 300.151Q834.595 304.097 837.119 308.105Q839.643 312.113 842.068 316.182Q844.494 320.25 846.819 324.377Q849.145 328.504 851.369 332.686Q853.594 336.867 855.715 341.102Q857.837 345.337 859.855 349.623Q861.873 353.908 863.786 358.241Q865.699 362.575 867.506 366.953Q869.313 371.332 871.012 375.753Q872.712 380.175 874.303 384.636Q875.895 389.097 877.377 393.596Q878.859 398.095 880.231 402.629Q881.603 407.162 882.864 411.728Q884.126 416.294 885.275 420.889Q886.425 425.484 887.462 430.106Q888.472 434.74 889.368 439.397Q890.263 444.055 891.045 448.733Q891.826 453.41 892.492 458.106Q893.158 462.802 893.708 467.513Q894.259 472.223 894.694 476.946Q895.128 481.669 895.447 486.401Q895.766 491.133 895.968 495.871Q896.17 500.609 896.256 505.351Q896.342 510.093 896.311 514.836Q896.281 519.578 896.134 524.319Q895.987 529.059 895.724 533.795Q895.46 538.53 895.081 543.258Q894.701 547.985 894.205 552.702Q893.71 557.419 893.099 562.122Q892.487 566.825 891.761 571.512Q891.034 576.198 890.193 580.866Q889.352 585.533 888.396 590.179Q887.44 594.824 886.371 599.445Q885.301 604.065 884.118 608.658Q882.936 613.251 881.641 617.813Q880.346 622.376 878.939 626.905Q877.532 631.434 876.015 635.928Q874.497 640.421 872.87 644.876Q871.242 649.33 869.506 653.744Q867.77 658.157 865.925 662.527Q864.081 666.896 862.13 671.219Q860.18 675.542 858.123 679.816Q856.067 684.089 853.906 688.311Q851.745 692.533 849.481 696.701Q847.218 700.868 844.852 704.979Q842.487 709.09 840.021 713.141Q837.555 717.192 834.991 721.182C794.981 784.367 732.52 835.906 664.02 865.496C640.642 875.594 616.532 882.974 591.722 888.562C591.844 876.224 592.323 863.671 591.504 851.36C597.357 850.118 603.241 848.065 608.957 846.293C632.757 838.915 654.619 829.358 676.332 817.162C758.316 771.111 820.845 701.711 846.442 610.186Q847.644 605.992 848.742 601.77Q849.84 597.547 850.832 593.299Q851.825 589.051 852.712 584.779Q853.599 580.508 854.379 576.215Q855.16 571.923 855.833 567.612Q856.507 563.302 857.074 558.976Q857.64 554.651 858.099 550.312Q858.558 545.974 858.909 541.625Q859.261 537.276 859.504 532.92Q859.747 528.564 859.882 524.204Q860.017 519.843 860.043 515.48Q860.07 511.118 859.988 506.756Q859.906 502.394 859.716 498.035Q859.526 493.677 859.228 489.324Q858.93 484.972 858.524 480.628Q858.118 476.284 857.604 471.952Q857.091 467.619 856.469 463.301Q855.848 458.983 855.12 454.681Q854.392 450.38 853.557 446.098Q852.722 441.815 851.782 437.555Q850.841 433.295 849.795 429.06Q848.749 424.824 847.598 420.616Q846.447 416.408 845.191 412.23Q843.936 408.051 842.578 403.906Q841.219 399.76 839.758 395.649Q838.297 391.538 836.735 387.465Q835.172 383.391 833.509 379.358Q831.846 375.325 830.083 371.334Q828.32 367.343 826.459 363.398Q824.598 359.452 822.639 355.554Q820.68 351.655 818.626 347.807Q816.571 343.958 814.421 340.162Q812.292 336.415 810.07 332.721Q807.849 329.027 805.537 325.389Q803.226 321.751 800.825 318.172Q798.424 314.592 795.936 311.073Q793.447 307.553 790.873 304.096Q788.298 300.64 785.639 297.247Q782.98 293.855 780.238 290.53Q777.496 287.204 774.673 283.947Q771.85 280.69 768.947 277.504Q766.044 274.318 763.064 271.204Q760.084 268.09 757.027 265.051Q753.971 262.012 750.84 259.049Q747.71 256.087 744.507 253.202Q741.305 250.317 738.032 247.513Q734.759 244.708 731.418 241.985Q728.077 239.262 724.669 236.622Q721.262 233.982 717.791 231.427Q714.319 228.872 710.786 226.404Q707.253 223.936 703.659 221.555Q700.066 219.175 696.415 216.884Q692.765 214.593 689.058 212.392Q685.352 210.192 681.592 208.084Q677.833 205.976 674.023 203.961Q670.212 201.946 666.353 200.026Q662.494 198.106 658.589 196.282Q654.684 194.458 650.735 192.73Q646.786 191.003 642.796 189.374Q638.805 187.745 634.776 186.214Q630.747 184.684 626.681 183.253Q622.615 181.823 618.515 180.493Q614.415 179.164 610.283 177.936Q606.152 176.708 601.991 175.582Q597.898 174.462 593.779 173.442Q589.659 172.421 585.516 171.502Q581.373 170.582 577.209 169.764Q573.045 168.946 568.863 168.23Q564.68 167.513 560.481 166.899Q556.282 166.284 552.069 165.773Q547.856 165.261 543.632 164.852Q539.408 164.443 535.176 164.137Q530.943 163.831 526.704 163.628Q522.465 163.425 518.223 163.326Q513.98 163.227 509.737 163.231Q505.493 163.235 501.251 163.343Q497.008 163.45 492.77 163.661Q488.531 163.872 484.299 164.186Q480.067 164.5 475.844 164.917Q471.621 165.334 467.409 165.854Q463.197 166.374 459 166.997Q454.802 167.619 450.62 168.344Q446.439 169.068 442.276 169.895Q438.114 170.721 433.973 171.648Q429.832 172.576 425.715 173.604Q421.597 174.632 417.506 175.76Q413.415 176.888 409.353 178.116Q405.291 179.343 401.26 180.67Q397.228 181.996 393.231 183.42Q389.233 184.844 385.271 186.365Q381.31 187.886 377.386 189.503Q373.462 191.12 369.58 192.832Q365.697 194.545 361.857 196.351Q358.016 198.157 354.222 200.057Q350.427 201.956 346.679 203.948Q342.932 205.939 339.234 208.021Q335.521 210.144 331.862 212.358Q328.202 214.572 324.598 216.876Q320.994 219.179 317.448 221.57Q313.901 223.961 310.415 226.438Q306.928 228.916 303.503 231.478Q300.079 234.041 296.718 236.686Q293.357 239.332 290.063 242.06Q286.768 244.787 283.541 247.595Q280.315 250.402 277.158 253.288Q274.001 256.174 270.917 259.137Q267.832 262.1 264.821 265.138Q261.81 268.175 258.874 271.286Q255.938 274.397 253.08 277.578Q250.222 280.76 247.443 284.011Q244.663 287.263 241.965 290.581Q239.266 293.899 236.65 297.283Q234.034 300.667 231.502 304.114Q228.969 307.561 226.523 311.069Q224.076 314.577 221.716 318.144Q219.356 321.712 217.085 325.336Q214.813 328.96 212.631 332.639Q210.45 336.318 208.359 340.049Q206.268 343.78 204.27 347.562Q202.271 351.343 200.366 355.173Q198.461 359.002 196.651 362.877Q194.841 366.753 193.126 370.671Q191.412 374.59 189.794 378.549Q188.176 382.508 186.656 386.506Q185.136 390.504 183.715 394.538Q182.294 398.572 180.972 402.64Q179.65 406.708 178.429 410.807Q177.207 414.906 176.087 419.034Q174.94 423.167 173.896 427.328Q172.851 431.488 171.91 435.673Q170.969 439.857 170.131 444.064Q169.293 448.271 168.559 452.497Q167.825 456.723 167.196 460.966Q166.567 465.209 166.042 469.466Q165.518 473.724 165.099 477.993Q164.68 482.261 164.366 486.539Q164.053 490.817 163.845 495.102Q163.637 499.386 163.535 503.674Q163.433 507.962 163.436 512.252Q163.44 516.541 163.55 520.829Q163.659 525.117 163.875 529.401Q164.09 533.685 164.411 537.962Q164.732 542.24 165.159 546.508Q165.586 550.776 166.117 555.032Q166.649 559.289 167.286 563.53Q167.922 567.772 168.664 571.997Q169.405 576.222 170.25 580.427Q171.095 584.633 172.044 588.816Q172.993 592.999 174.044 597.157Q175.096 601.316 176.25 605.447Q177.404 609.578 178.66 613.68Q179.915 617.781 181.272 621.85Q182.628 625.92 184.085 629.954Q185.541 633.989 187.097 637.986Q188.653 641.984 190.306 645.941Q191.96 649.899 193.711 653.815Q195.462 657.73 197.309 661.602Q199.157 665.473 201.099 669.298Q203.041 673.122 205.077 676.897Q207.113 680.673 209.241 684.397C251.367 758.14 319.227 812.204 398.823 840.706C410.194 844.777 421.665 847.758 433.298 850.935C433.797 863.637 433.326 876.175 433.462 888.855Z"/>
	<path fill="#121212" d="M577.951 664.599C587.721 669.258 597.51 673.768 607.207 678.599C594.533 690.917 582.731 700.012 566.88 707.985C559.604 711.63 551.884 714.308 544.076 716.548C553.056 706.1 561.477 695.637 568.279 683.604C571.788 677.395 574.651 670.909 577.951 664.599Z"/>
	<path fill="#121212" d="M534.96 464.508C540.52 465.682 545.836 467.681 551.136 469.696C573.629 478.247 591.58 491.284 608.128 508.548C604.851 510.848 601.538 512.993 598.097 515.041C591.702 518.495 585.272 521.873 578.594 524.751C568.406 498.245 557.793 481.919 534.96 464.508Z"/>
	<path fill="#121212" d="M444.237 664.919C446.73 665.282 449.451 673.017 450.726 675.518C460.137 693.989 470.002 705.305 484.48 719.822C477.187 716.761 468.892 715.473 461.366 712.771C442.757 705.976 426.66 693.264 413.306 678.84C423.402 673.661 433.742 669.224 444.237 664.919Z"/>
	<path fill="#121212" d="M483.912 466.114C484.699 466.017 485.042 465.784 485.726 466.232C469.56 477.918 459.404 490.853 451.309 509.188C448.889 514.668 447.031 520.424 444.354 525.782L444.083 526.313C437.518 523.694 431.106 520.588 424.707 517.59C420.517 515.118 416.524 512.289 412.493 509.567C432.253 487.311 455.039 473.431 483.912 466.114Z"/>
	<path fill="#121212" d="M516.468 654.083C531.161 653.882 555.859 657.657 569.445 663.007C564.98 675.927 556.629 687.89 548.143 698.485C541.988 706.199 534.114 714.044 526.189 719.91Q521.353 720.416 516.527 721.014C516.27 698.715 516.481 676.385 516.468 654.083Z"/>
	<path fill="#121212" d="M498.122 654.214C501.357 653.904 504.618 654.027 507.865 654.057C508.306 661.468 507.96 669.098 507.969 676.54L507.979 721.223C496.185 719.171 488.488 712.945 480.461 704.337C469.136 692.759 460.294 676.853 453.705 662.13C468.359 657.779 482.956 655.698 498.122 654.214Z"/>
	<path fill="#121212" d="M516.457 463.747C519.252 464.559 521.9 465.669 524.494 466.984C547.318 478.565 562.975 503.794 570.873 527.577L563.468 529.711C547.868 533.349 532.481 536.177 516.411 536.596L516.397 489.966C516.379 481.262 515.922 472.432 516.457 463.747Z"/>
	<path fill="#2D2D2D" d="M312.528 497.494C335.768 498.344 361.551 501.902 381.468 514.519C363.956 537.214 357.94 556.737 355.653 585.161C355.496 583.433 355.287 581.933 354.509 580.358C350.881 573.011 345.564 566.245 341.531 559.062C333.637 545 327.486 529.843 320.782 515.192C318.145 509.429 314.415 503.484 312.528 497.494Z"/>
	<path fill="#121212" d="M507.437 463.59C508.628 465.018 507.935 529.264 507.871 536.598C491.284 536.05 475.268 534.297 459.11 530.423C456.91 529.943 454.727 529.291 452.548 528.716C453.685 524.759 455.259 520.844 456.87 517.06C467.093 493.043 482.805 473.484 507.437 463.59Z"/>
	<path fill="#121212" d="M591.193 600.96Q615.877 600.823 640.56 601.012C639.269 623.399 632.061 643.581 619.885 662.317C617.657 665.594 615.219 668.752 612.874 671.947C602.051 668.04 591.761 661.889 580.486 657.696C586.509 638.776 590.331 620.824 591.193 600.96Z"/>
	<path fill="#121212" d="M533.093 600.77C539.169 600.363 579.151 600.088 582.116 602.25C585.373 610.123 575.876 645.411 572.351 654.54L568.013 653.429C550.948 648.962 534.123 646.379 516.509 645.499L516.443 601.069C521.992 600.893 527.541 601.001 533.093 600.77Z"/>
	<path fill="#121212" d="M441.519 600.572L507.869 601.107C508.269 611.117 508.468 621.673 507.81 631.667C507.038 631.989 506.296 632.319 505.558 632.715C506.293 632.872 507.024 633.011 507.763 633.142C508.494 636.906 507.936 641.51 507.88 645.368L501.616 645.77C498.513 646.733 487.021 646.742 482.416 647.403C471.71 648.939 461.235 651.683 450.787 654.411C444.683 636.838 442.437 619.066 441.519 600.572Z"/>
	<path fill="#121212" d="M380.841 601.029L433.344 601.023C434.522 612.533 435.23 623.637 437.208 635.09C437.74 638.173 438.189 641.317 438.944 644.351C439.901 648.197 441.741 652.207 441.842 656.164C438.525 658.158 434.847 659.67 431.333 661.297C423.57 664.673 416.04 668.392 408.806 672.8C396.426 659.259 387.6 637.426 383.553 619.484C382.179 613.395 381.557 607.219 380.841 601.029Z"/>
	<path fill="#121212" d="M612.567 515.099C612.729 515.173 612.91 515.215 613.052 515.321C615.293 517.003 617.284 520.549 618.883 522.844C632.6 542.523 640.32 568.631 641.096 592.498L610.25 592.47L591.333 592.516C590.906 571.712 588.316 551.906 581.3 532.235C585.32 529.99 589.76 528.319 593.872 526.208C600.324 522.894 606.478 519.029 612.567 515.099Z"/>
	<path fill="#121212" d="M450.243 536.443C452.63 537.386 455.52 537.861 458.036 538.502C474.416 542.678 491.164 544.409 508.035 544.964L507.858 592.553L499.75 592.568L441.733 592.362C442.048 573.2 444.596 554.777 450.243 536.443Z"/>
	<path fill="#121212" d="M572.702 535.146L573.262 535.391C579.463 545.137 582.339 580.253 582.539 592.607L525.875 592.541L516.166 592.598C516.764 576.756 516.454 560.833 516.438 544.979C537.245 543.884 552.738 540.648 572.702 535.146Z"/>
	<path fill="#121212" d="M407.832 515.804C418.16 523.66 429.545 529.079 441.471 534.056C440.41 539.408 438.878 544.67 437.758 550.016Q435.461 560.46 434.33 571.093Q433.198 581.726 433.245 592.419C427.416 592.331 421.58 592.363 415.75 592.34L380.864 592.391C380.254 564.45 391.192 537.789 407.832 515.804Z"/>
	<path fill="#D43841" d="M735.217 480.435C727.715 485.149 718.522 488.274 709.714 489.207C694.43 490.826 678.523 486.694 666.51 476.951Q665.449 476.098 664.432 475.193Q663.415 474.289 662.443 473.335Q661.472 472.381 660.549 471.381Q659.626 470.38 658.754 469.335Q657.881 468.29 657.062 467.203Q656.242 466.116 655.477 464.99Q654.713 463.864 654.005 462.701Q653.296 461.539 652.647 460.343Q651.997 459.147 651.407 457.92Q650.817 456.693 650.289 455.438Q649.76 454.184 649.295 452.905Q648.829 451.626 648.427 450.325Q648.025 449.024 647.688 447.706Q647.351 446.387 647.08 445.053Q646.808 443.719 646.603 442.373Q646.398 441.027 646.26 439.673C644.657 424.02 648.779 408.697 658.791 396.451C669.951 382.8 684.983 376.784 702.123 375.023C690.047 389.065 682.716 404.463 684.053 423.35C685.243 440.149 694.189 455.376 706.789 466.226C715.479 473.708 725.053 475.915 735.217 480.435Z"/>
	<path fill="#121212" d="M354.441 479.079C346.464 484.712 337.659 488.793 327.987 490.362C312.895 492.81 298.171 489.394 285.766 480.41C273.003 471.167 264.283 458.004 261.783 442.349Q261.555 440.92 261.398 439.482Q261.241 438.043 261.156 436.599Q261.07 435.155 261.057 433.708Q261.044 432.261 261.102 430.815Q261.16 429.369 261.29 427.928Q261.421 426.487 261.622 425.054Q261.824 423.622 262.096 422.2Q262.368 420.779 262.711 419.374Q263.054 417.968 263.466 416.581Q263.878 415.194 264.358 413.829Q264.839 412.464 265.386 411.125Q265.934 409.785 266.547 408.475Q267.16 407.164 267.838 405.886Q268.516 404.608 269.256 403.365Q269.997 402.121 270.798 400.916Q271.599 399.712 272.459 398.548C283.268 383.97 298.303 376.574 315.944 373.973C315.855 374.269 315.772 374.568 315.675 374.863C314.075 379.725 309.658 384.63 307.193 389.224C298.104 406.165 297.197 426.098 305.246 443.617C311.977 458.268 325.268 469.328 340.325 474.693C344.845 476.304 350.149 477.105 354.441 479.079Z"/>
	<path fill="#EE7B6F" d="M702.123 375.023C720.778 375.818 736.357 380.222 749.267 394.412Q750.178 395.406 751.039 396.443Q751.9 397.481 752.709 398.56Q753.517 399.639 754.271 400.757Q755.025 401.875 755.722 403.029Q756.419 404.183 757.059 405.37Q757.698 406.558 758.277 407.775Q758.856 408.993 759.375 410.238Q759.893 411.482 760.349 412.751Q760.804 414.02 761.196 415.311Q761.588 416.601 761.916 417.909Q762.243 419.217 762.506 420.539Q762.768 421.862 762.964 423.196Q763.16 424.53 763.29 425.872Q763.419 427.214 763.482 428.561Q763.545 429.908 763.54 431.256Q763.536 432.604 763.465 433.951C762.68 449.762 755.286 463.864 743.548 474.323Q739.696 477.806 735.217 480.435C725.053 475.915 715.479 473.708 706.789 466.226C694.189 455.376 685.243 440.149 684.053 423.35C682.716 404.463 690.047 389.065 702.123 375.023Z"/>
	<path fill="#2D2D2D" d="M315.944 373.973C330.397 372.179 346.287 377.453 357.641 386.366Q358.751 387.228 359.817 388.145Q360.883 389.062 361.901 390.031Q362.92 391 363.889 392.018Q364.858 393.037 365.774 394.103Q366.691 395.168 367.553 396.279Q368.416 397.389 369.222 398.541Q370.027 399.693 370.775 400.883Q371.522 402.074 372.208 403.301Q372.895 404.528 373.52 405.787Q374.144 407.046 374.705 408.336Q375.266 409.625 375.762 410.94Q376.257 412.256 376.686 413.594Q377.116 414.933 377.478 416.291Q377.839 417.65 378.133 419.024Q378.426 420.399 378.651 421.787Q378.875 423.175 379.03 424.572Q379.197 425.986 379.294 427.406Q379.391 428.826 379.418 430.25Q379.445 431.673 379.401 433.096Q379.358 434.519 379.244 435.938Q379.131 437.357 378.947 438.769Q378.763 440.181 378.511 441.582Q378.258 442.982 377.936 444.369Q377.614 445.756 377.224 447.125Q376.834 448.494 376.377 449.843Q375.92 451.191 375.397 452.515Q374.874 453.839 374.287 455.136Q373.699 456.432 373.048 457.698Q372.397 458.965 371.685 460.197Q370.972 461.429 370.2 462.625Q369.427 463.821 368.596 464.977Q367.766 466.133 366.879 467.247C363.234 471.83 359.012 475.452 354.441 479.079C350.149 477.105 344.845 476.304 340.325 474.693C325.268 469.328 311.977 458.268 305.246 443.617C297.197 426.098 298.104 406.165 307.193 389.224C309.658 384.63 314.075 379.725 315.675 374.863C315.772 374.568 315.855 374.269 315.944 373.973Z"/>
	<path fill="#EE7B6F" d="M653.63 508.538C678.212 495.211 704.539 491.353 731.688 499.293C758.919 507.257 783.224 527.185 796.795 552.057C801.946 561.497 805.914 571.908 808.012 582.468C792.835 584.286 776.375 582.577 761.345 580.025C728.219 574.401 695.173 557.051 672.091 532.467C665.098 525.018 659.52 516.845 653.63 508.538Z"/>
	<path fill="#D43841" d="M642.344 515.244C646.031 512.886 649.841 510.728 653.63 508.538C659.52 516.845 665.098 525.018 672.091 532.467C695.173 557.051 728.219 574.401 761.345 580.025C776.375 582.577 792.835 584.286 808.012 582.468C809.438 590.303 810.62 598.095 810.671 606.082C810.892 640.736 796.419 670.293 772.731 694.896C764.072 703.889 754.549 712.081 745.743 720.95C755.046 703.308 762.11 684.94 767.998 665.908C772.861 650.188 777.067 636.245 768.821 620.829C763.348 610.598 754.143 602.331 742.902 599.039C732.905 596.11 722.283 597.665 713.212 602.657C696.77 611.705 688.55 628.603 683.535 645.922C676.193 643.171 668.908 640.536 661.323 638.526Q662.167 635.56 662.887 632.562Q663.607 629.563 664.201 626.538Q664.796 623.512 665.265 620.464Q665.733 617.417 666.074 614.352Q666.415 611.287 666.629 608.211Q666.842 605.135 666.928 602.053Q667.013 598.97 666.971 595.887Q666.928 592.804 666.757 589.725Q666.586 586.646 666.287 583.577Q665.988 580.508 665.562 577.454Q665.136 574.4 664.584 571.366Q664.031 568.333 663.353 565.325Q662.674 562.317 661.871 559.339Q661.069 556.362 660.143 553.421Q659.217 550.48 658.169 547.579Q657.122 544.679 655.955 541.825C652.137 532.65 646.945 524.043 642.344 515.244Z"/>
	<path fill="#121212" d="M217.194 577.939C221.754 558.797 231.394 539.847 245.283 525.791C263.379 507.477 286.863 497.586 312.528 497.494C314.415 503.484 318.145 509.429 320.782 515.192C327.486 529.843 333.637 545 341.531 559.062C345.564 566.245 350.881 573.011 354.509 580.358C355.287 581.933 355.496 583.433 355.653 585.161C355.137 596.519 357.221 608.358 358.822 619.585C359.834 625.383 361.319 630.858 363.088 636.463L362.944 636.586C363.158 637.21 363.387 637.823 363.623 638.439C362.64 638.8 355.95 637.911 354.132 637.965C349.089 638.116 344.546 639.237 339.693 640.562C336.78 632.019 333.603 624.673 328.453 617.195C324.954 613.445 321.423 609.957 316.997 607.297C304.064 599.523 290.982 600.126 276.849 603.634Q275.889 603.994 274.955 604.416C264.624 609.006 256.286 617.351 252.308 627.985C242.781 653.451 263.396 696.619 274.126 720.359C271.486 717.575 268.545 715.068 265.865 712.312Q255.432 701.574 246.459 689.589C227.206 663.801 214.521 633.295 214.936 600.697C215.034 593 216.088 585.538 217.194 577.939Z"/>
	<path fill="#D43841" d="M455.33 216.192C460.064 215.766 464.757 215.748 469.475 216.376C487.791 218.816 500.733 228.865 511.699 243.151C513.896 239.999 516.49 236.81 519.117 234.006C530.106 222.277 545.355 216.444 561.288 216.011Q562.894 215.959 564.5 215.988Q566.106 216.016 567.708 216.125Q569.311 216.234 570.906 216.422Q572.501 216.611 574.085 216.879Q575.669 217.148 577.237 217.495Q578.805 217.842 580.354 218.267Q581.903 218.693 583.429 219.195Q584.955 219.697 586.454 220.275Q587.953 220.852 589.421 221.504Q590.889 222.156 592.322 222.881Q593.756 223.606 595.151 224.401Q596.547 225.197 597.901 226.061Q599.255 226.925 600.564 227.856Q601.873 228.787 603.134 229.782Q604.395 230.777 605.604 231.834Q606.814 232.891 607.969 234.007Q609.053 235.038 610.085 236.121Q611.117 237.205 612.093 238.339Q613.07 239.472 613.988 240.653Q614.907 241.834 615.766 243.059Q616.625 244.284 617.422 245.551Q618.218 246.817 618.951 248.121Q619.684 249.426 620.351 250.765Q621.017 252.105 621.617 253.476Q622.216 254.846 622.746 256.246Q623.276 257.645 623.736 259.068Q624.196 260.492 624.585 261.937Q624.973 263.382 625.289 264.844Q625.605 266.307 625.848 267.783Q626.091 269.259 626.26 270.746Q626.428 272.233 626.523 273.726Q626.618 275.219 626.638 276.715Q626.703 278.885 626.621 281.055Q626.539 283.225 626.31 285.384Q626.082 287.543 625.708 289.682Q625.334 291.821 624.816 293.93Q624.299 296.038 623.64 298.107Q622.981 300.176 622.183 302.196Q621.386 304.215 620.454 306.176Q619.522 308.137 618.459 310.031C611.471 322.265 599.235 332.294 589.304 342.156Q572.269 358.873 555.671 376.024C541.314 390.355 526.528 404.508 512.891 419.526L452.657 359.404C438.993 345.707 420.795 329.192 410.167 313.299C404.519 304.854 400.946 295.711 399.662 285.61C397.607 269.438 401.689 252.942 411.758 240.027C422.733 225.948 437.767 218.324 455.33 216.192ZM445.159 240.667C435.977 241.729 428.095 244.37 422.125 251.814Q421.673 252.382 421.251 252.972Q420.828 253.562 420.435 254.173Q420.042 254.783 419.681 255.413Q419.319 256.042 418.989 256.688Q418.659 257.335 418.362 257.997Q418.065 258.659 417.801 259.336Q417.537 260.012 417.307 260.701Q417.078 261.389 416.883 262.088Q416.688 262.788 416.528 263.496Q416.368 264.204 416.244 264.919Q416.12 265.634 416.032 266.355Q415.943 267.075 415.891 267.799Q415.839 268.523 415.823 269.249Q415.807 269.974 415.827 270.7Q415.848 271.426 415.904 272.149Q415.96 272.873 416.053 273.593Q416.14 274.304 416.263 275.009Q416.386 275.715 416.544 276.413Q416.702 277.111 416.895 277.801Q417.088 278.49 417.316 279.169Q417.544 279.848 417.805 280.515Q418.066 281.182 418.361 281.834Q418.656 282.487 418.983 283.124Q419.31 283.761 419.669 284.38Q420.028 285 420.417 285.601Q420.807 286.202 421.226 286.782Q421.645 287.363 422.093 287.921Q422.541 288.48 423.017 289.015Q423.492 289.551 423.994 290.062Q424.496 290.572 425.023 291.057Q425.55 291.542 426.1 292Q426.651 292.458 427.224 292.887C432.978 297.157 439.164 298.409 446.126 298.725C454.253 297.885 462.135 294.116 467.313 287.713Q467.771 287.149 468.2 286.562Q468.629 285.976 469.029 285.369Q469.428 284.762 469.797 284.136Q470.166 283.51 470.504 282.867Q470.841 282.223 471.146 281.563Q471.451 280.904 471.723 280.23Q471.995 279.556 472.233 278.87Q472.471 278.183 472.675 277.486Q472.878 276.788 473.047 276.081Q473.216 275.375 473.349 274.66Q473.483 273.946 473.581 273.226Q473.678 272.506 473.74 271.782Q473.802 271.058 473.828 270.332Q473.854 269.605 473.844 268.879Q473.834 268.152 473.787 267.427Q473.741 266.702 473.659 265.98C472.77 258.559 468.841 251.388 462.889 246.829C457.538 242.73 451.742 241.222 445.159 240.667ZM465.877 304.561C460.668 307.008 456.504 309.798 454.458 315.508C452.859 319.972 453.46 324.99 455.656 329.146C457.677 332.972 461.046 335.729 465.243 336.823C468.154 337.582 470.778 337.344 473.682 336.806C478.612 334.569 482.659 331.741 484.724 326.487C486.346 322.362 486.054 317.743 484.155 313.76Q483.81 313.03 483.394 312.337Q482.978 311.645 482.496 310.997Q482.014 310.348 481.47 309.751Q480.926 309.154 480.326 308.613Q479.726 308.072 479.075 307.594Q478.425 307.115 477.73 306.703Q477.035 306.291 476.303 305.949Q475.571 305.608 474.809 305.34C471.799 304.276 468.994 304.353 465.877 304.561Z"/>
	<path fill="#D43841" d="M513.522 786.146C519.867 774.028 525.732 761.47 536.642 752.708C549.018 742.768 564.728 738.671 579.097 732.546Q585.478 729.773 591.602 726.47Q597.725 723.167 603.547 719.358Q615.629 711.497 626.535 702.072C636.062 693.889 647.474 679.621 659.498 675.684C664.275 674.119 669.522 674.833 673.869 677.295C677.336 679.258 680.807 682.226 681.947 686.192C683.213 690.592 681.477 695.018 679.235 698.78C671.288 712.112 654.205 728.575 641.777 738.095C636.984 741.767 631.721 744.859 626.98 748.582C626.362 749.067 626.669 748.861 625.753 749.226L625.937 749.868L625.383 749.873L625.206 750.292C633.797 745.538 642.494 741.766 650.67 736.18C675.672 719.098 694.438 691.516 706.812 664.193C711.116 654.69 713.544 642.884 720.168 634.756C723.89 630.188 729.512 627.365 735.426 629.004C739.714 630.193 743.111 633.373 745.241 637.201C749.484 644.826 746.779 653.675 744.354 661.419C738.833 679.05 730.133 696.57 721.288 712.744C691.116 767.916 653.808 806.996 597.651 836.024Q594.337 837.741 590.965 839.34C591.009 843.327 590.874 847.418 591.504 851.36C592.323 863.671 591.844 876.224 591.722 888.562L583.378 890.347C541.62 898.119 485.627 900.291 444.108 890.846L433.462 888.855C433.326 876.175 433.797 863.637 433.298 850.935C433.249 847.514 433.156 844.086 433.215 840.665Q430.657 839.315 428.125 837.919Q425.593 836.522 423.087 835.079Q420.581 833.636 418.102 832.147Q415.623 830.658 413.173 829.123Q410.722 827.589 408.299 826.009Q405.877 824.429 403.485 822.805Q401.092 821.181 398.73 819.513Q396.368 817.844 394.037 816.133Q391.706 814.422 389.407 812.667Q387.108 810.913 384.842 809.117Q382.576 807.32 380.344 805.482Q378.111 803.644 375.913 801.765Q373.715 799.886 371.552 797.967Q369.389 796.048 367.261 794.089Q365.134 792.13 363.043 790.132Q360.953 788.135 358.899 786.099Q356.846 784.062 354.83 781.989Q352.815 779.915 350.838 777.804Q348.861 775.694 346.924 773.547Q344.986 771.4 343.089 769.218Q341.191 767.036 339.335 764.819Q337.478 762.602 335.662 760.352Q333.847 758.101 332.073 755.817Q330.299 753.533 328.568 751.217Q326.837 748.9 325.149 746.552Q323.461 744.204 321.816 741.826Q320.172 739.447 318.572 737.038Q316.972 734.63 315.416 732.192Q313.861 729.754 312.351 727.288Q310.841 724.822 309.376 722.328Q307.912 719.834 306.494 717.314Q305.076 714.794 303.705 712.248C295.048 696.337 287.249 679.247 282.07 661.869C279.909 654.617 276.828 643.666 280.823 636.602C282.534 633.577 285.478 631.688 288.801 630.86C292.62 629.909 297.081 629.693 300.488 631.966C308.878 637.564 313.071 657.691 316.414 667.273C317.824 671.314 319.548 675.218 321.388 679.079Q323.276 683.076 325.414 686.944Q327.551 690.813 329.93 694.539Q332.308 698.265 334.918 701.832Q337.527 705.4 340.358 708.795C352.921 723.964 369.391 737.162 386.152 747.406C391.778 750.844 397.819 753.616 403.39 757.107L402.915 756.611C397.224 750.739 390.239 745.866 384.076 740.469C371.211 729.202 343.125 702.706 343.317 684.925C343.348 682.098 344.261 679.545 346.325 677.563C348.526 675.45 350.966 674.408 354.036 674.606C366.479 675.408 385.729 697.435 395.179 705.994C408.299 717.876 423.126 726.786 439.349 733.801C462.733 743.911 486.073 747.796 503.261 768.498C507.757 773.914 510.725 779.723 513.522 786.146Z"/>
	<path fill="#87263E" d="M444.108 890.846C448.461 887.294 455.624 885.727 460.799 883.499C477.61 876.262 495.192 865.169 506.618 850.735C509.538 847.046 511.897 842.911 514.313 838.882C516.811 843.418 519.104 847.816 522.292 851.939C532.684 865.378 549.554 876.232 565.195 882.701C571.018 885.109 578.399 886.541 583.378 890.347C541.62 898.119 485.627 900.291 444.108 890.846Z"/>
</svg>
