<?xml version="1.0" encoding="utf-8" ?>
<svg xmlns="http://www.w3.org/2000/svg" xmlns:xlink="http://www.w3.org/1999/xlink" width="512" height="512">
	<path fill="#00B560" d="M252.657 64.1054C263.592 63.3122 276.482 64.982 285.249 72.0899Q285.773 72.5085 286.276 72.9528Q286.779 73.3972 287.259 73.8662Q287.739 74.3352 288.194 74.8277Q288.65 75.3202 289.08 75.835Q289.511 76.3497 289.915 76.8854Q290.319 77.4211 290.695 77.9764Q291.072 78.5317 291.42 79.1052Q291.769 79.6787 292.088 80.2689Q292.407 80.8592 292.696 81.4647Q292.985 82.0702 293.243 82.6894Q293.502 83.3087 293.729 83.9401Q293.956 84.5715 294.151 85.2136Q294.346 85.8556 294.508 86.5066Q294.671 87.1576 294.8 87.8159Q294.93 88.4743 295.026 89.1383Q295.123 89.8023 295.186 90.4703C296.088 100.467 295.101 110.738 295.039 120.766L295.024 139.761C295.024 144.686 295.332 149.886 294.35 154.729C293.456 159.141 291.226 163.341 288.325 166.759C281.47 174.837 271.008 177.997 260.812 178.861L260.562 178.884C249.414 179.809 235.823 177.632 227.091 170.172C221.839 165.684 218.797 159.216 218.244 152.373C217.588 144.263 218.139 134.164 218.142 125.829L218.129 106.102C218.122 100.621 217.794 94.9303 218.859 89.5274C219.855 84.4718 222.185 79.4096 225.569 75.503C232.112 67.9496 243.04 64.823 252.657 64.1054Z"/>
	<path fill="#00B560" d="M0.263484 112.474C1.6688 105.53 5.49028 99.315 11.4278 95.3825C20.4686 89.3946 34.2704 87.867 44.7191 90.0119C49.8031 91.0556 55.2105 93.2195 59.6908 95.8584C63.9857 98.3881 67.9456 101.454 71.9645 104.389C78.7814 109.366 85.5516 114.447 92.4498 119.31L123.125 141.118L135.589 149.912C138.692 152.076 141.913 154.159 144.855 156.538C148.148 159.201 151.266 162.212 153.589 165.778C157.159 171.257 159.282 177.219 157.873 183.789C156.416 190.581 151.551 195.915 145.836 199.559C135.746 205.994 122.228 207.984 110.602 205.354C106.723 204.476 103.275 203.085 99.8632 201.04C94.0845 197.578 88.5397 193.51 83.027 189.642Q66.1926 177.785 49.6425 165.535L23.3789 146.102C17.6179 141.87 11.4359 137.797 6.02554 133.141C4.98336 132.245 4.11536 131.251 3.3904 130.078C1.84735 127.582 0.733478 124.396 0.285335 121.508L0 121.589L0 112.385L0.263484 112.474Z"/>
	<path fill="#00B560" d="M511.736 123.677C511.264 126.709 509.966 130.428 508.223 132.979C505.735 136.618 499.212 140.449 495.548 143.184Q487.008 149.587 478.403 155.902Q458.211 170.875 437.802 185.549C429.573 191.461 421.227 197.723 412.538 202.93C408.549 205.32 404.931 206.783 400.37 207.709C388.788 210.058 375.278 207.792 365.408 201.203C359.734 197.415 355.222 192.063 353.908 185.226C352.692 178.9 355.137 172.45 358.678 167.278Q360.137 165.103 361.891 163.157Q363.645 161.212 365.657 159.535C370.434 155.628 375.829 152.265 380.869 148.686L413.747 125.354L436.519 108.863C441.464 105.249 446.417 101.287 451.702 98.1807C456.615 95.2936 462.338 93.0217 467.956 92.0172C478.73 90.0912 491.991 91.6519 501.115 98.0951C506.501 101.898 510.647 107.944 511.738 114.478L512 114.536L512 123.726L511.736 123.677ZM511.738 114.478C511.631 117.396 511.376 120.795 511.736 123.677L512 123.726L512 114.536L511.738 114.478Z"/>
	<path fill="#00B560" fill-opacity="0.98823529" d="M511.738 114.478L512 114.536L512 123.726L511.736 123.677C511.376 120.795 511.631 117.396 511.738 114.478Z"/>
	<path fill="#00B560" d="M246.224 196.625Q253.527 196.42 260.83 196.634C311.489 198.313 363.712 208.143 402.911 242.672C408.94 247.983 413.942 254.24 419.404 260.084C412.448 259.737 405.401 259.907 398.435 259.906L364.214 259.903L258.625 259.905L85.8107 260.041C87.2357 257.091 89.6297 254.402 91.8585 252.03C95.8695 247.761 100.084 243.361 104.566 239.592C143.583 206.782 196.782 198.045 246.224 196.625Z"/>
	<path fill="#00B560" d="M399.145 304.359C400.804 304.227 402.535 304.304 404.197 304.37C424.622 305.18 445.465 312.499 459.509 327.846C473.687 343.338 479.345 364.068 478.467 384.789C474.599 385.101 470.652 384.934 466.772 384.917L450.171 384.903L405.213 384.902C394.79 384.894 384.344 384.719 373.926 385.138C374.268 391.716 375.945 399.294 379.577 404.861C382.832 409.85 389.449 412.588 395.069 413.769C405.256 415.911 412.787 415.233 421.163 408.785C423.495 406.99 425.63 404.721 428.118 403.164C429.236 402.463 430.291 402.228 431.595 402.129C437.19 401.705 443.041 402.088 448.671 402.071L464.848 402.029C468.21 402.027 472.178 401.679 475.442 402.434C475.969 402.556 475.876 402.465 476.195 402.968C476.204 404.203 475.68 405.389 475.286 406.547C472.722 413.036 469.376 419.352 464.656 424.551C450.494 440.151 431.022 447.112 410.346 448.219C387.021 449.468 362.431 444.264 344.663 428.281C331.153 416.129 323.656 398.638 322.701 380.618C321.765 362.938 327.353 342.762 339.412 329.478C355.146 312.145 376.385 305.441 399.145 304.359ZM402.163 334.856C393.961 335.555 386.439 338.901 381.074 345.293C378.008 348.946 376.423 353.226 375.396 357.823Q390.269 358.106 405.145 358.001C414.008 358.039 422.901 358.27 431.75 357.69C428.421 348.88 424.363 341.17 415.35 337.114C411.59 335.423 406.288 334.149 402.163 334.856Z"/>
	<path fill="#00B560" d="M243.231 306.605C244.302 306.484 245.416 306.484 246.493 306.494C259.354 306.61 273.308 311.062 282.452 320.429C287.581 325.684 290.917 332.108 292.549 339.257C295.035 350.146 293.901 362.254 294.069 373.385Q294.603 403.037 294.499 432.694C294.472 435.222 294.791 441.14 292.999 442.893C290.861 443.539 249.116 443.634 245.428 442.959C244.946 442.871 244.12 442.684 243.755 442.325C242.948 441.529 243.317 437.175 243.336 436.07C243.595 421.055 243.507 405.995 243.463 390.977C243.437 381.932 243.982 371.746 242.626 362.847C242.069 359.19 240.964 355.468 238.827 352.411Q238.544 352.009 238.241 351.621Q237.938 351.233 237.616 350.86Q237.294 350.487 236.954 350.131Q236.614 349.775 236.257 349.436Q235.9 349.097 235.527 348.776Q235.153 348.456 234.765 348.154Q234.376 347.852 233.973 347.569Q233.57 347.287 233.153 347.025Q232.736 346.762 232.307 346.521Q231.878 346.28 231.437 346.06Q230.997 345.84 230.546 345.643Q230.095 345.445 229.635 345.27Q229.175 345.095 228.707 344.943Q228.239 344.79 227.763 344.662Q227.288 344.533 226.807 344.427Q226.327 344.322 225.841 344.241Q225.34 344.159 224.835 344.101Q224.33 344.043 223.823 344.01Q223.317 343.977 222.809 343.969Q222.301 343.961 221.793 343.978Q221.285 343.994 220.779 344.036Q220.273 344.078 219.769 344.144Q219.265 344.211 218.766 344.302Q218.266 344.393 217.771 344.508Q217.277 344.624 216.788 344.763Q216.3 344.903 215.819 345.066Q215.338 345.23 214.865 345.416Q214.393 345.603 213.93 345.813Q213.467 346.022 213.016 346.255Q212.564 346.487 212.124 346.741Q211.684 346.995 211.257 347.27Q210.83 347.545 210.417 347.841C205.156 351.663 202.316 357.14 200.726 363.32C198.984 370.084 199.005 377.563 198.988 384.514C198.961 396.199 199.492 407.863 199.544 419.546C199.573 426.297 199.731 433.314 198.649 439.99C198.544 440.633 198.359 442.087 197.78 442.414C195.267 443.832 159.501 443.466 154.415 443.219C152.42 443.122 150.476 442.957 148.525 442.518C148.121 435.95 148.475 429.192 148.485 422.601L148.506 383.364C148.5 377.363 149.154 365.128 147.408 359.709C145.814 354.445 142.645 349.763 137.741 347.065Q137.244 346.794 136.733 346.548Q136.223 346.302 135.701 346.082Q135.179 345.861 134.647 345.667Q134.115 345.473 133.574 345.305Q133.033 345.138 132.484 344.997Q131.935 344.857 131.38 344.744Q130.825 344.631 130.265 344.546Q129.705 344.46 129.142 344.403Q128.578 344.345 128.012 344.316Q127.447 344.286 126.88 344.285Q126.314 344.284 125.748 344.311Q125.182 344.338 124.618 344.392Q124.055 344.447 123.494 344.53Q122.934 344.613 122.378 344.724Q121.823 344.834 121.273 344.972Q120.724 345.11 120.182 345.275C114.071 347.148 109.369 351.612 107.006 357.535Q106.254 359.466 105.764 361.48Q105.275 363.493 105.055 365.554C104.315 372.206 104.716 379.172 104.674 385.868L104.698 428.667C104.702 431.891 105.313 439.858 103.888 442.514C100.029 443.665 80.7499 443.029 75.5293 443.032C70.346 443.034 65.1343 443.336 59.9564 443.163C57.9751 443.096 56.0251 442.891 54.0628 442.619C53.565 433.948 53.9638 425.041 53.9598 416.339L53.9321 365.9C53.9203 351.552 53.435 337.198 53.6847 322.853C53.7437 319.469 53.6541 312.621 54.4495 309.64C54.5382 309.308 54.6568 309.132 54.9819 309.019C56.4877 308.495 59.6087 309.017 61.3339 309.023C70.1057 309.05 78.8464 308.637 87.6115 308.519C91.6225 308.465 95.7823 308.256 99.7734 308.633C101.452 308.791 102.816 309.315 104.281 310.097C105.678 314.394 104.933 321.262 104.207 325.68Q105.177 324.687 106.201 323.749C118.929 312.127 138.064 305.894 155.162 306.779C166.212 307.351 179.656 311.952 187.899 319.534C190.16 321.613 192.524 323.931 194.47 326.307C195.928 328.087 197.179 329.966 198.729 331.681C199.945 328.982 202.058 326.234 203.972 323.985C213.583 312.694 228.903 307.696 243.231 306.605Z"/>
</svg>
