<svg id="svg2" xmlns="http://www.w3.org/2000/svg" viewBox="0 0 1781.1 1515.23"><defs><style>.cls-1{fill:#c8102e;}.cls-2{fill:#003087;}.cls-3{fill:#ffcd00;}</style></defs><rect id="rect2" class="cls-1" x="487.13" y="1016.89" width="201.55" height="54.28"/><rect id="rect4" class="cls-2" x="244.24" y="1016.89" width="201.55" height="54.28"/><rect id="rect6" class="cls-3" x="1.36" y="1016.89" width="201.55" height="54.28"/><path d="M2.73,525.11H124V704.44H302.85V525.11H424.09V995.66H302.85V796.16H124v199.5H2.73Z"/><path d="M542.51,525.11h327.2v91.72h-206v87.61H857.43v91.72H663.75V903.94H876.64v91.72H542.51Z"/><path d="M983.08,525.11h121.25V903.94h212.89v91.72H983.08Z"/><path d="M1394.06,525.11H1595.3q89.75,0,137.77,39.87t48,113.62q0,74.07-48,113.93T1595.3,832.4h-80V995.66H1394.06ZM1515.3,613V744.47h67.08q35.26,0,54.49-17.18t19.21-48.69q0-31.51-19.21-48.54t-54.49-17Z"/></svg>