<svg width="19" height="19" viewBox="0 0 19 19" fill="#FFFFFF" xmlns="http://www.w3.org/2000/svg">
<path d="M2.54199 18.8601C1.99199 18.8601 1.52116 18.6643 1.12949 18.2726C0.737826 17.8809 0.541992 17.4101 0.541992 16.8601V2.86011C0.541992 2.31011 0.737826 1.83927 1.12949 1.44761C1.52116 1.05594 1.99199 0.860107 2.54199 0.860107H9.54199V2.86011H2.54199V16.8601H16.542V9.86011H18.542V16.8601C18.542 17.4101 18.3462 17.8809 17.9545 18.2726C17.5628 18.6643 17.092 18.8601 16.542 18.8601H2.54199ZM7.24199 13.5601L5.84199 12.1601L15.142 2.86011H11.542V0.860107H18.542V7.86011H16.542V4.26011L7.24199 13.5601Z"/>
</svg>
