<svg width="19" height="19" viewBox="0 0 19 19" fill="none" xmlns="http://www.w3.org/2000/svg">
<path d="M17.785 18.4147C15.7016 18.4147 13.6433 17.9605 11.61 17.0522C9.57663 16.1438 7.72663 14.8563 6.05996 13.1897C4.39329 11.523 3.10579 9.67301 2.19746 7.63967C1.28913 5.60634 0.834961 3.54801 0.834961 1.46467C0.834961 1.16467 0.934961 0.914673 1.13496 0.714673C1.33496 0.514673 1.58496 0.414673 1.88496 0.414673H5.93496C6.16829 0.414673 6.37663 0.49384 6.55996 0.652173C6.74329 0.810506 6.85163 0.998006 6.88496 1.21467L7.53496 4.71467C7.56829 4.98134 7.55996 5.20634 7.50996 5.38967C7.45996 5.57301 7.36829 5.73134 7.23496 5.86467L4.80996 8.31467C5.14329 8.93134 5.53913 9.52717 5.99746 10.1022C6.45579 10.6772 6.95996 11.2313 7.50996 11.7647C8.02663 12.2813 8.56829 12.7605 9.13496 13.2022C9.70163 13.6438 10.3016 14.048 10.935 14.4147L13.285 12.0647C13.435 11.9147 13.6308 11.8022 13.8725 11.7272C14.1141 11.6522 14.3516 11.6313 14.585 11.6647L18.035 12.3647C18.2683 12.4313 18.46 12.5522 18.61 12.7272C18.76 12.9022 18.835 13.098 18.835 13.3147V17.3647C18.835 17.6647 18.735 17.9147 18.535 18.1147C18.335 18.3147 18.085 18.4147 17.785 18.4147ZM3.85996 6.41467L5.50996 4.76467L5.08496 2.41467H2.85996C2.94329 3.09801 3.05996 3.77301 3.20996 4.43967C3.35996 5.10634 3.57663 5.76467 3.85996 6.41467ZM12.81 15.3647C13.46 15.648 14.1225 15.873 14.7975 16.0397C15.4725 16.2063 16.1516 16.3147 16.835 16.3647V14.1647L14.485 13.6897L12.81 15.3647Z" fill="#D00B27"/>
</svg>
