<?xml version="1.0" encoding="utf-8" ?>
<svg xmlns="http://www.w3.org/2000/svg" xmlns:xlink="http://www.w3.org/1999/xlink" width="260" height="65">
	<path d="M208.206 29.8747C208.923 29.811 209.267 29.7174 209.93 30.0412L210.109 30.639L209.744 31.1136C208.688 31.6525 207.352 31.6593 206.187 31.7718C205.699 31.7001 205.375 31.7352 205.013 31.3757C205.473 30.6972 207.393 30.2221 208.206 29.8747Z"/>
	<path d="M77.9912 18.8707C84.542 18.5715 91.1857 18.7566 97.7449 18.7416C108.731 18.7165 119.749 18.5467 130.733 18.7626C136.238 18.8709 141.735 19.3026 147.239 19.4429C149.23 19.4936 156.983 19.2852 158.087 19.7776C158.486 19.9555 158.423 20.3442 158.579 20.7256C159.021 21.8054 160.814 21.2216 161.705 20.9804C162.727 20.7042 163.801 20.3123 164.858 20.2493C167.139 20.1136 180.754 20.8912 182.882 21.3754C184.095 21.6516 185.303 22.4295 186.452 22.9179C189.67 24.285 188.377 22.7491 189.429 22.3384C190.302 21.9974 191.92 22.1494 192.775 22.5366C193.559 22.891 193.815 23.4691 194.098 24.2232C196.678 23.5113 198.919 23.1227 201.611 23.3253C205.609 23.6262 209.329 24.5579 213.268 25.0852C217.557 25.6593 237.506 27.1675 239.789 29.8843C240.014 30.1523 239.962 30.2676 239.934 30.5982C239.914 30.6137 239.893 30.6294 239.872 30.6444C238.271 31.7821 229.989 29.8394 227.738 29.5733C225.994 29.3672 224.209 29.4524 222.478 29.1687C220.541 28.8512 218.671 28.1928 216.719 27.9636C212.418 27.4589 208.813 27.6111 204.384 26.857C194.393 25.1557 183.974 25.1702 173.858 24.6179C162.382 23.9915 150.9 23.1448 139.411 22.7857C130.464 22.5061 121.532 22.6335 112.585 22.6538C110.262 22.659 101.136 22.1267 99.5106 23.2781C100.363 24.2512 124.218 24.8129 127.672 24.8546C130.818 24.8925 137.855 24.3964 140.453 25.3784Q140.395 25.9502 140.305 26.518C142.065 26.7355 144.362 25.3648 146.525 25.4862C151.335 25.7561 155.948 27.1489 160.718 27.4311C163.032 27.568 165.27 26.9546 167.569 27.006C169.961 27.0594 172.233 27.8347 174.576 27.9834C175.246 28.0259 175.879 27.6683 176.514 27.6942C177.468 27.733 178.442 28.0887 179.431 28.1321C186.375 28.437 196.162 28.2604 202.721 30.0603C203.317 30.2239 204.038 30.4405 204.358 31.0161C204.398 31.0896 204.256 31.4742 204.226 31.5776C203.962 31.7898 203.673 31.9856 203.357 32.1133C202.446 32.4812 193.399 32.719 192.486 32.3442L192.356 31.5696C192.264 31.5431 192.173 31.524 192.079 31.5059C191.087 31.3142 189.822 31.9007 188.777 31.8935C187.636 31.8856 186.526 31.2623 185.334 31.2154C180.006 31.0054 179.577 32.5726 173.935 30.0805C170.453 30.3045 166.96 30.5402 163.47 30.4232C156.513 30.19 114.061 26.8109 111.863 28.6235L111.989 29.0116C112.52 29.3525 113.062 29.5504 113.694 29.5747C115.161 29.6311 116.728 29.1817 118.241 29.1802C120.803 29.1777 123.475 29.1479 126.023 29.3989C127.631 29.5572 129.237 29.9639 130.846 30.0623C131.736 30.1168 132.591 29.7934 133.562 29.8722C140.78 30.0438 148.056 30.6956 155.262 31.1893C158.774 31.4299 162.315 31.4114 165.817 31.7524C170.422 32.2007 174.988 33.0157 179.595 33.4747C188.81 34.3926 198.057 34.9876 207.259 36.0167C214.39 36.8141 221.392 37.9752 228.474 39.0218C230.012 39.249 232.362 38.8224 233.619 39.5398C233.728 40.0832 233.78 40.2147 233.561 40.7232C233.477 40.7561 233.395 40.7794 233.308 40.8014C232.44 41.0203 231.541 40.1879 230.755 40.2274C230.015 40.2647 229.842 41.5237 229.079 41.8315C228.306 42.1434 227.733 40.4038 226.889 40.0441L226.611 40.1623C226.692 40.7058 226.753 40.9186 226.551 41.4272C226.461 41.4524 226.372 41.47 226.28 41.4868C226.085 41.5226 225.913 41.5266 225.717 41.4925C223.812 41.1613 221.946 40.6799 220.022 40.4478C216.257 39.9936 212.432 39.9332 208.655 39.5808C206.137 39.346 203.64 38.8863 201.119 38.6927C198.634 38.5018 196.132 38.4979 193.651 38.2653C188.988 37.8282 184.371 36.9163 179.715 36.4429C178.072 36.2759 176.455 36.5306 174.815 36.4814C171.691 36.3877 168.466 36.0351 165.331 35.8383C161.162 35.5767 156.989 34.842 152.835 34.6455C151.295 34.5726 149.791 35.2367 148.224 35.1634C146.872 35.1002 145.54 34.8252 144.194 34.7362C142.365 34.6153 140.528 34.7451 138.7 34.6298C134.729 34.3794 130.782 33.8737 126.797 33.6714C123.274 33.4926 119.753 33.6979 116.234 33.5689C103.862 33.1155 91.408 32.5511 79.0263 32.546Q64.586 32.6518 50.178 33.6216C42.8731 34.0448 35.7171 34.7355 28.3801 34.6012C26.4488 34.5658 24.3393 34.6496 22.4534 34.2007C21.5793 33.9926 21.0888 33.7033 20.6186 32.9418C20.6014 32.6603 20.636 32.4032 20.7782 32.1551C21.2 31.419 21.863 30.7943 22.7028 30.5936C24.5581 30.1501 26.8918 30.2194 28.8014 30.1113Q35.8699 29.7122 42.9447 29.4522C56.7313 28.938 70.5667 28.1247 84.3621 28.2358Q91.4081 28.3185 98.4527 28.4803C101.448 28.5581 106.406 29.2525 109.228 28.4878C106.116 25.4291 45.5152 28.6424 36.9324 28.2508C36.0145 28.2089 34.7212 28.1644 33.9884 27.5283C33.3642 26.9863 33.0633 26.1285 33.0176 25.3212C32.9729 24.5325 33.1756 23.6768 33.7144 23.0793C34.2528 22.4822 34.9922 22.1688 35.7621 21.9965C40.1726 21.0094 48.5224 20.7392 53.2553 20.4474C61.5044 19.9388 69.735 19.3107 77.9912 18.8707Z"/>
</svg>
