<?xml version="1.0" encoding="utf-8" ?>
<svg xmlns="http://www.w3.org/2000/svg" xmlns:xlink="http://www.w3.org/1999/xlink" width="360" height="360">
	<path fill="#080808" d="M334.712 161.782C335.159 163.789 335.331 166.521 334.826 168.517L334.782 168.697C334.08 171.502 332 173.634 331.6 176.618C331.033 180.847 333.533 184.807 332.651 189.958C332.488 189.755 332.381 189.753 332.143 189.663L331.21 190.418C331.906 184.993 329.821 180.944 330.257 176.327C330.523 173.513 332.72 171.487 333.367 168.807C333.813 166.96 333.462 164.507 333.54 162.584C334.25 162.387 334.272 162.324 334.712 161.782Z"/>
	<path fill="#080808" d="M40.4944 158.45C41.3933 157.995 42.3813 157.785 43.3751 158.077C44.2452 158.333 44.7556 158.991 45.1494 159.771C46.7289 162.897 45.6787 164.829 49.0786 167.053C51.6481 166.798 54.1862 166.202 56.7132 165.682C57.096 166.005 57.5422 166.392 58.0232 166.553C59.6026 167.08 66.1751 167.177 68.4896 167.504C69.5883 167.053 70.3179 166.169 71.4014 165.709C73.3227 165.364 77.9838 164.941 79.5947 166.035C79.9399 166.269 80.2442 166.57 80.5388 166.863C81.5135 167.464 82.48 168.047 83.5042 168.561C85.1948 167.969 86.6374 167.936 88.4092 168.049C89.4347 170.026 100.819 185.005 102.28 185.669C103.533 186.239 103.346 184.377 105.094 186.376C106.041 186.364 107.936 184.453 108.927 183.948C114.529 185.214 117.429 186.46 123.224 184.72C130.07 187.312 136.326 179.732 144.298 185.113C144.551 186.637 145.001 187.992 145.544 189.435C142.132 193.499 140.949 194.752 140.943 200.157C139.56 201.492 138.015 202.555 136.405 203.594C136.448 205.071 136.222 206.944 137.203 208.132C136.772 208.586 136.384 209.093 135.766 209.28C135.39 208.027 134.917 205.853 135.098 204.559C135.418 202.257 138.238 200.938 139.88 199.599C140.302 194.06 140.607 193.217 144.259 188.985C143.619 187.794 143.131 186.692 142.766 185.39C141.589 185.034 140.4 184.644 139.2 184.377C136.494 183.773 134.864 184.814 132.659 186.192C129.965 185.611 127.827 186.157 125.192 186.708L123.474 186.01C121.772 186.434 120.083 186.962 118.395 187.442C115.926 186.345 110.849 184.811 108.313 185.809C106.816 186.398 106.339 187.847 105.779 189.217C105.362 188.676 104.876 187.935 104.302 187.563C103.572 187.092 102.768 187.3 101.988 187.49L101.706 187.56C100.894 187.023 100.585 185.505 99.9256 184.689C96.4867 180.431 89.9017 173.368 87.5578 168.941C86.0874 169.116 84.8126 169.398 83.4182 169.907C81.8654 169.247 80.3154 168.456 79.0047 167.389C77.268 166.415 74.1539 167.125 72.1344 166.807C70.8833 167.583 69.6933 168.495 68.4989 169.355C64.4439 166.873 60.0991 168.964 55.9317 167.07C53.3232 167.626 50.8791 168.098 48.188 167.987C47.0962 167.104 46.1599 165.993 45.2028 164.967C44.9873 163.689 44.8805 162.378 44.7297 161.089L42.6599 159.078C41.4305 159.651 40.8146 159.965 39.4736 159.559C39.865 159.218 40.2589 158.924 40.4944 158.45Z"/>
	<path fill="#080808" d="M41.3709 79.6802C42.8305 77.4105 43.6851 74.7195 45.3141 72.5716C47.3843 69.8418 51.6039 67.9729 54.8995 67.4159C56.197 67.1967 57.9674 67.1472 59.1519 66.588C59.7943 66.2848 60.3405 65.7828 60.9327 65.3927C61.5761 64.9689 62.1605 64.7683 62.93 64.9654C63.446 65.0976 64.0791 65.5715 64.324 66.0478C64.5054 66.4008 64.497 66.7117 64.32 67.0731C63.0769 69.6114 55.3574 70.2107 52.6656 70.9242L52.5096 70.4954C51.6988 70.2174 51.0573 70.5636 50.303 70.9261L50.1536 70.9993C49.6053 70.7894 49.5628 70.7578 49.032 71.0139C45.4895 72.7231 44.1971 77.7169 42.1063 80.755C40.5531 81.4095 38.8536 82.0125 37.5149 83.0555C34.6191 85.3116 30.0491 93.409 28.6302 96.8102C26.8174 101.155 26.8814 107.036 25.3491 111.625C24.3729 114.549 22.1955 116.741 20.5232 119.26C19.6729 120.54 19.0756 121.984 18.2458 123.286C19.0511 123.148 19.9733 123.04 20.7286 122.727C22.4504 122.013 26.3412 118.401 28.1816 119.802C29.0605 120.471 28.8507 121.843 29.8402 122.533C30.7879 122.412 31.4872 122.068 32.4155 122.353C34.3531 124.283 34.0124 128.692 35.0264 131.286C35.6677 132.927 36.6468 134.315 37.7338 135.687C40.5659 139.261 41.2973 141.672 41.8668 146.169C41.455 146.993 40.5313 147.088 40.1197 147.791C38.8651 149.932 39.0663 155.221 39.7646 157.565C39.917 158.077 40.0787 158.138 40.4944 158.45C40.2589 158.924 39.865 159.218 39.4736 159.559C37.7658 156.854 37.7299 152.628 38.2654 149.563C38.5796 147.765 38.994 146.775 40.5013 145.698C40.3014 144.303 40.2295 142.738 39.8441 141.387C38.7732 137.634 35.2962 135.081 33.7687 131.178C32.8544 128.842 33.3706 125.297 31.7453 123.447C30.7875 123.31 30.2202 124.099 29.2377 124.042C28.2967 123.402 27.983 121.928 27.3252 120.985C25.0873 120.518 22.2067 124.811 18.1319 124.429C17.7845 124.233 17.5478 124.203 17.3872 123.819C16.4466 121.574 21.7806 115.833 23.0293 113.879C23.469 113.191 23.7704 112.42 24.0604 111.66C25.6894 107.389 25.8521 100.582 27.4365 96.5814C28.8302 93.0623 34.1056 84.1756 36.8814 81.8733C38.0503 80.9038 39.9744 80.2949 41.3709 79.6802Z"/>
	<path fill="#080808" d="M331.21 190.418L332.143 189.663C332.381 189.753 332.488 189.755 332.651 189.958C331.54 193.44 331.742 196.405 331.585 199.968C330.766 201.094 329.868 202.03 328.861 202.99C328.016 203.025 327.243 202.904 326.529 203.379C326.862 206.755 329.036 205.265 327.132 210.361C327.453 211.922 327.704 213.547 328.175 215.069C330.865 217.308 332.996 219.883 335.986 221.775C335.999 224.492 336.619 228.442 334.986 230.656C335.016 231.055 334.932 231.139 335.232 231.421C336.885 232.972 340.836 245.838 340.748 248.288C340.711 249.333 339.91 250.028 339.241 250.748C340.008 251.449 340.847 252.141 341.547 252.906C341.857 255.424 342.983 257.957 342.896 260.463C342.18 261.246 341.415 262.01 340.811 262.884C340.61 264.367 340.039 266.09 340.03 267.556C340.022 268.804 340.722 270.418 340.532 271.588C340.461 272.024 340.168 272.379 339.814 272.627C339.064 273.152 337.926 273.283 337.038 273.447C335.817 276.651 335.689 279.06 335.847 282.432C334.279 284.797 332.79 287.294 331.016 289.508C331 291.264 331.503 295.688 330.336 296.866C327.707 297.199 322.587 291.908 319.889 290.718C318.807 290.241 317.476 290.177 316.314 290.05C315.717 289.503 315.104 288.969 314.533 288.395C312.939 286.793 310.761 285.834 308.966 284.47C307.558 283.399 306.464 282.01 304.944 281.087C304.982 278.245 305.077 275.391 305.046 272.55C303.765 271.778 302.001 270.925 301.451 269.439C301.505 268.833 301.617 268.314 301.794 267.733C300.868 265.072 299.891 262.861 299.295 260.063C300.469 257.443 300.005 255.586 300.713 253.05C301.257 251.099 302.528 249.318 302.944 247.349C303.06 246.804 303.061 246.295 302.84 245.778C302.412 244.778 301.228 243.543 301.231 242.521C302.277 240.681 304.26 240.154 306.056 239.273C306.697 237.973 307.314 236.998 308.366 235.984C308.076 234.346 307.758 232.751 307.31 231.146L305.575 229.53C305.416 227.905 305.383 226.321 305.396 224.692C303.306 224.774 302.462 224.705 300.779 223.446C299.173 223.535 297.562 223.792 296.037 223.181C295.686 222.804 295.457 222.686 295.48 222.118C295.549 220.445 297.284 218.395 297.821 216.733C298.467 214.734 298.385 212.615 299.072 210.587C297.961 209.503 297.141 208.388 296.309 207.08C294.038 207.217 291.56 208.206 289.42 208.964C287.569 214.02 287.001 213.756 282.403 216.595C281.993 217.741 281.64 218.914 280.937 219.92C279.585 220.205 278.233 220.517 276.872 220.75C276.103 220.404 275.53 220.097 274.663 220.175C274.239 220.572 274.074 220.957 273.852 221.477C273.073 222.155 272.535 222.213 271.519 222.142Q271.208 222.121 270.898 222.092C270.388 222.348 269.995 222.544 269.813 223.134C269.716 223.447 269.713 223.826 269.678 224.151C269.627 224.633 269.555 225.242 269.182 225.58C268.315 226.366 265.796 226.038 264.64 226.088C261.752 228.458 259.954 227.44 257.39 229.011C257.034 229.23 256.676 229.443 256.324 229.67C254.53 228.999 251.099 227.212 249.211 228.014C248.174 228.454 248.127 230.142 247.123 230.584C245.698 231.211 243.331 229.782 242.676 231.933C241.836 234.689 245.938 237.465 242.189 239.927C241.587 240.322 240.839 240.585 240.173 240.856C238.708 239.981 237.381 239.048 236.133 237.878C234.542 236.386 232.175 232.394 230.136 231.954C228.668 232.45 228.556 235.303 226.625 234.24C225.736 233.751 225.019 232.772 224.365 232.015C223.802 232.266 223.206 232.55 222.609 232.705C221.726 232.933 220.726 232.784 219.815 232.952C218.482 233.199 217.544 234.181 216.086 233.984C215.429 233.565 215.359 233.434 215.167 232.677C214.828 231.347 214.769 230.34 213.446 229.547C211.048 228.109 207.127 229.074 204.483 229.371C203.672 228.46 201.966 226.125 200.743 225.984C200.654 225.974 200.563 225.975 200.473 225.97L200.045 226.368C200.25 227.529 201.274 228.026 201.948 228.921C203.596 231.107 204.741 233.671 207.039 235.301C208.8 236.549 212.381 237.687 212.805 240.146C213.246 242.71 211.832 245.54 212.33 248.261C213.491 254.605 219.975 255.069 216.252 263.292C217.877 263.481 219.488 264.03 221.085 264.157C223.409 264.342 229.207 263.025 230.746 265.107C231.257 265.798 231.218 266.742 231.042 267.54C230.767 268.792 230.167 269.948 229.579 271.078L226.335 271.037C225.17 271.738 224.117 272.755 222.952 273.38C220.885 274.489 216.763 273.945 216.092 276.671C215.747 278.072 215.95 279.835 215.982 281.279Q213.272 283.572 210.527 285.824C209.949 285.217 209.385 284.582 208.777 284.006C208.027 284.492 207.246 284.992 206.562 285.57C205.471 286.494 202.716 290.052 201.428 289.8C201.033 289.722 200.638 289.403 200.307 289.181C198.647 289.201 196.21 291.842 194.136 292.212C193.86 292.261 193.585 292.319 193.308 292.367C192.919 293.781 192.535 295.183 192.012 296.556C190.323 296.751 188.968 296.782 187.851 298.282C186.825 299.659 187.527 301.709 185.477 302.002C184.741 302.107 184.078 302.097 183.396 301.801C183.069 301.226 183.016 300.98 183.235 300.335C183.736 298.864 184.992 297.532 184.422 295.914C183.806 295.221 183.265 294.785 182.301 294.745C178.428 294.584 176.171 298.881 172.939 300.127C171.905 300.526 169.21 299.963 167.747 300.271C164.687 297.555 157.568 292.336 155.92 288.908C154.269 285.473 153.448 281.225 152.279 277.558C151.539 275.235 151.112 272.549 149.756 270.505C148.841 269.126 149.031 268.155 149.309 266.635C147.42 264.616 145.208 261.824 142.755 260.577C142.022 260.204 141.038 259.771 140.752 258.972C140.626 258.621 140.551 258.239 140.467 257.876C138.863 256.261 135.721 257.812 134.241 256.581C134.691 253.294 148.118 245.914 146.566 243.833C146.015 243.093 145.034 242.685 144.5 241.926C143.865 241.024 144.263 239.504 143.64 238.578C142.192 236.429 140.106 237.871 139.314 234.263C139.181 233.659 138.962 232.93 139.019 232.311C139.028 232.22 139.041 232.131 139.051 232.041L139.651 232.198C139.677 232.566 139.625 232.849 139.856 233.147C140.449 234.156 140.955 235.169 141.435 236.236C142.628 236.549 144.015 236.772 144.644 237.971C145.078 238.799 145.12 239.982 145.228 240.91C146.437 241.901 147.985 242.832 148.204 244.492C147.212 247.477 138.537 253.349 135.817 255.932C137.124 255.932 138.781 255.767 140.019 256.201C141.349 256.667 147.537 262.952 148.94 264.355C149.424 264.839 150.786 265.926 150.766 266.633C150.754 267.035 150.604 267.345 150.459 267.713C150.273 268.183 150.056 268.621 150.266 269.12C150.459 269.577 150.763 270.005 151.06 270.398C152.162 271.853 152.429 274.376 152.951 276.126C153.594 278.285 156.82 288.34 157.656 289.623C158.969 291.639 165.938 297.386 168.073 298.971C170.003 298.2 171.436 299.068 172.774 298.592C176.859 297.141 178.679 291.956 184.118 294.319C184.859 294.642 185.544 295.175 185.847 295.947C186.13 296.668 186.041 297.578 185.682 298.258C185.245 299.083 184.349 299.972 184.327 300.919C184.871 301.078 184.995 300.961 185.513 300.769C186.683 299.673 186.695 297.78 187.671 296.503C188.626 295.253 190.039 295.881 191.073 295.082C192.05 294.327 191.772 292.756 192.48 291.871C193.439 290.673 198.467 288.582 200.091 287.771L201.251 288.371C202.854 288.195 204.446 285.833 205.596 284.742C207.9 282.555 208.324 283.483 210.833 283.446C212.43 283.422 213.894 281.605 214.977 280.575L215.059 275.903L215.454 275.004L216.299 273.96L218.707 273.101C223.34 272.697 223.951 270.027 228.678 269.879C229.163 268.991 229.932 267.77 229.846 266.727C229.807 266.251 229.548 265.821 229.17 265.536C227.911 264.586 224.95 265.099 223.458 265.382C222.252 265.58 220.989 265.513 219.768 265.509C218.585 265.153 217.412 264.712 216.161 264.777C214.312 262.692 216.406 260.118 216.016 257.604C215.551 254.61 213.029 252.991 211.783 250.446C210.362 247.544 211.015 243.403 211.984 240.487C209.907 238.351 207.28 237.059 205.108 235.046C203.648 233.691 198.72 228.19 198.747 226.317C198.754 225.838 198.871 225.434 199.258 225.116C199.599 224.835 200.288 224.522 200.743 224.566C202.447 224.728 203.806 226.651 204.834 227.862C208.711 227.874 211.186 226.609 214.832 228.635C215.604 230.01 216.08 231.546 216.612 233.026C218.594 231.764 220.176 231.289 222.499 231.081C223.715 230.972 224.911 231.017 225.873 231.849C226.207 232.137 226.56 232.395 226.91 232.661C228.115 232.474 228.547 230.935 229.837 230.66C232.28 230.14 234.753 234.979 236.282 236.495C237.457 237.661 238.89 238.548 240.264 239.459C240.961 239.103 241.514 238.754 242.089 238.222C243.079 236.218 241.438 233.855 241.469 231.749C241.479 231.06 241.725 230.441 242.273 230.009C243.353 229.156 244.858 229.302 246.137 229.4C246.867 228.493 247.755 227.285 248.857 226.832C250.917 225.987 253.533 227.402 255.467 228.133C257.441 227.444 259.464 227.268 261.419 226.641C262.521 226.288 263.437 225.348 264.54 225.084C265.687 224.809 266.833 225.095 267.994 224.708C268.621 224.037 268.502 223.422 268.582 222.531C269.724 220.547 271.498 221.733 272.712 220.484C273.45 219.725 273.045 219.07 274.253 218.506C275.276 218.455 276.175 219.032 277.059 219.482C277.959 219.298 279.292 219.115 280.082 218.673C280.747 218.301 281.203 216.118 281.981 215.389C283.278 214.173 285.185 213.693 286.501 212.467C287.719 211.332 287.603 209.549 287.622 208.019C288.181 207.538 289.582 207.615 290.346 207.373C291.927 206.871 293.381 206.029 294.949 205.515C295.481 205.34 295.824 205.423 296.306 205.709C297.602 206.475 299.882 209.004 300.149 210.477C300.249 211.029 298.852 218.11 298.587 218.705C298.064 219.875 297.08 221.006 296.316 222.038C298.409 221.964 305.095 222.527 306.528 223.853C307.289 224.558 306.996 227.749 306.997 228.794L308.607 230.403C309.249 232.747 309.459 234.947 309.492 237.362C308.474 238.3 307.687 239.805 306.566 240.558C305.394 241.346 303.342 241.375 302.685 242.766C302.971 243.508 303.857 243.609 304.569 243.953C305.414 246.774 302.646 250.529 301.941 253.22C301.322 255.583 301.458 257.853 300.605 260.217C301.569 263.09 301.708 265.167 303.825 267.512C303.439 268.3 303.114 268.852 303.206 269.76C303.726 270.757 305.224 271.265 306.21 271.776C306.301 274.568 306.221 277.384 306.217 280.179C307.772 281.248 308.823 282.83 309.941 284.322C313.04 285.298 314.337 286.651 316.528 288.93C318.737 289.153 320.643 289.601 322.736 290.323L323.722 292.303C326.202 293.373 327.977 294.534 329.988 296.298Q330.007 292.491 330.069 288.685C331.575 286.442 333.167 284.351 334.592 282.028C334.504 280.064 334.352 278.061 334.66 276.11C335.297 272.068 336.319 273.429 338.513 271.631C340.368 270.111 338.18 268.986 338.277 267.481C338.377 265.927 339.423 264.064 339.575 262.139C340.246 261.17 341.079 260.272 341.836 259.366C341.018 257.475 340.618 255.917 340.458 253.849C339.43 252.999 338.606 251.992 337.748 250.977L339.583 247.757C338.402 243.728 336.648 236.289 334.499 232.974C333.991 232.19 333.262 231.555 332.57 230.936L334.95 228.305C335.051 226.458 334.993 224.582 335.002 222.732C332.042 220.556 329.488 217.995 326.85 215.448C326.454 213.656 326.202 211.836 325.792 210.039C326.156 209.311 326.743 208.444 326.821 207.629C326.936 206.43 326.072 205.769 325.38 204.928C324.825 204.252 324.766 203.732 324.857 202.885C325.787 201.497 326.93 202.03 328.314 201.655C331.735 200.727 329.427 193.808 331.21 190.418Z"/>
	<path fill="#080808" d="M137.203 208.132C137.295 208.294 137.424 208.441 137.48 208.619C137.662 209.197 136.982 211.056 136.89 211.742C136.545 214.322 136.134 217.271 136.366 219.856C136.376 219.968 136.382 220.081 136.394 220.194C136.534 221.409 137.232 222.744 137.708 223.873L137.162 226.799C138.114 228.234 140.66 230.271 140.717 231.832L139.856 233.147C139.625 232.849 139.677 232.566 139.651 232.198L139.051 232.041C138.951 230.429 136.766 228.381 136.017 226.831C136.439 223.816 135.772 222.133 134.617 219.435C135.141 217.443 136.329 211.078 135.766 209.28C136.384 209.093 136.772 208.586 137.203 208.132Z"/>
	<path fill="#080808" d="M83.9759 65.2209C84.9043 62.1026 86.1286 60.132 89.0436 58.5275C89.9737 58.0156 91.0678 57.5959 92.1325 57.9165C93.1722 58.2295 93.8492 59.2285 94.2996 60.1588C95.5393 62.7201 96.4573 72.1396 99.2558 72.8965C100.902 73.3417 104.614 72.6315 106.2 72.0137C109.187 72.9013 112.685 73.5032 115.51 74.4963C119.461 75.885 124.32 79.1517 126.317 82.8845C126.739 83.6739 126.942 84.3575 127.125 85.2339C127.225 85.7085 127.345 86.1806 127.453 86.6536L126.329 89.0915C127.125 90.5143 128.504 93.5052 130.194 93.9395C133.866 94.8835 143.537 93.592 147.446 92.8616C149.399 92.4966 151.296 91.8526 153.236 91.4268C155.845 90.8542 158.872 90.4884 161.547 90.3371C163.401 90.2322 165.359 90.8075 167.218 90.9362C169.081 91.0651 171.551 90.9841 172.896 92.5093C173.066 93.404 173.019 94.2603 172.982 95.1631C177.652 98.6191 182.332 100.519 187.996 101.688C189.944 102.09 191.932 102.306 193.824 102.934C196.087 102.148 197.279 102.176 199.626 102.64C200.144 101.815 200.754 100.586 201.555 100.024C202.755 99.1834 204.537 99.0433 205.871 98.3582C207.716 97.4101 209.438 95.8957 211.197 94.7537C210.298 93.7024 209.103 92.6484 209.22 91.1531C209.241 90.8825 209.491 90.6699 209.653 90.4579C211.072 89.8516 212.296 90.3791 213.67 90.8381C214.504 90.4338 215.049 90.1749 216.001 90.2361C218.512 90.3976 223.477 90.5246 225.888 90.4109C228.291 90.2975 230.763 89.5611 233.156 89.2235C235 88.9634 236.865 89.1024 238.714 88.9385C240.603 88.7711 242.456 88.3371 244.354 88.2351C247.334 88.0749 250.199 88.9165 253.194 88.8744C255.285 88.845 259.481 87.8547 261.075 89.3551C261.113 89.8639 261.145 90.0022 260.81 90.4329C259.567 92.0322 254.855 92.0388 252.98 92.2697L250.993 93.9651C247.035 93.9195 243.168 93.2626 239.217 93.7876L239.435 93.8771C240.02 94.1114 240.525 94.2684 241.149 94.3863C242.296 94.603 243.969 95.651 244.66 96.5906C244.915 96.9371 244.938 97.1722 244.831 97.5909C244.771 97.8212 244.586 98.0869 244.464 98.2935C244.608 98.8866 244.633 98.8755 245.123 99.2477C246.107 99.3206 247.054 99.2853 247.741 100.095C249.09 101.685 249.39 104.509 249.738 106.492C251.144 105.153 253.227 103.104 255.338 103.258C257.728 103.432 258.337 107.416 260.803 107.551C261.404 107.584 261.875 107.029 262.388 106.947C263.259 106.808 263.844 107.6 264.719 107.277C265.008 106.595 265.076 106.167 265.728 105.751C266.908 105.672 267.786 106.426 268.722 107.054C269.614 108.084 270.457 109.836 271.505 110.58C272.591 110.374 272.888 110.363 273.814 111.004C276.123 112.601 275.681 112.987 278.928 112.51C280.093 113.674 283.757 116.245 283.799 117.98C283.828 119.195 282.057 119.758 282.117 120.613C283.103 120.699 284.178 120.676 284.848 121.524C285.278 122.069 285.837 123.012 285.73 123.685L285.382 123.803C284.569 123.045 284.02 122.128 282.765 122.183C282.317 122.203 282.172 122.366 281.803 122.62L281.474 123.378L281.638 123.771C282.42 123.988 283.543 123.918 284.089 124.466C283.973 124.996 283.999 125.059 283.59 125.402C282.914 125.216 282.342 124.89 281.69 125.188C281.68 126.13 282.054 126.812 281.725 127.716C281.232 128.047 280.821 128.195 280.219 128.053C279.213 127.815 277.973 126.758 276.968 126.932C276.501 127.326 276.328 127.393 276.158 127.996C276.732 128.863 276.999 129.728 278.004 130.038C278.884 129.739 279.658 129.316 280.539 129.708C280.73 130.085 280.76 130.08 280.63 130.489C280.265 131.633 279.293 132.777 278.603 133.765C280.447 133.703 282.898 133.889 284.483 132.841Q284.792 131.967 285.06 131.08C285.679 131.132 286.316 131.645 286.751 132.084C286.905 132.239 286.973 132.406 287.06 132.601L286.913 132.666C286.556 132.825 286.283 132.944 286.014 133.239C286.521 133.965 287.626 134.053 288.458 134.199C289.225 134.334 290.004 134.53 290.779 134.397C291.082 133.952 291.136 133.583 291.214 133.066C291.774 132.454 292.796 132.319 293.599 132.286C296.662 132.161 300.72 133.848 302.877 135.996C303.46 136.575 303.917 137.264 304.373 137.944C305.385 136.807 306.295 135.81 307.935 135.741C311.293 135.599 317.052 139.875 319.351 142.2C320.746 143.609 321.939 145.209 323.313 146.64C326.058 149.501 331.049 153.532 332.956 156.791C333.835 158.293 333.683 160.064 334.637 161.652C334.663 161.695 334.687 161.739 334.712 161.782C334.272 162.324 334.25 162.387 333.54 162.584C332.611 160.802 332.499 158.495 331.488 156.901C329.134 153.191 325.189 150.362 322.15 147.23C320.231 145.252 318.776 142.937 316.498 141.304C314.407 139.804 310.043 136.516 307.358 137.104C305.88 137.428 305.133 138.813 304.421 140.001C303.296 138.376 302.341 137.141 300.773 135.932C299.422 134.889 297.896 133.876 296.118 134.096L295.972 134.327C296.604 134.784 297.185 135.172 297.646 135.815L297.536 136.224C295.466 137.241 293.858 135.238 291.775 135.23C291.398 135.467 290.908 135.832 290.468 135.913C289.169 136.151 284.669 134.359 281.433 134.851C280.77 134.952 280.465 134.934 280.055 135.5C280.102 136.075 280.234 136.646 279.919 137.16C278.483 137.482 277.3 136.861 276.023 136.267C270.87 133.87 275.812 131.32 275.055 129.232C273.761 129.142 272.808 130.201 271.584 129.923L271.401 129.388C272.052 127.388 275.38 127.861 277.235 124.863C277.014 124.412 274.806 124.802 274.081 124.436L273.949 123.884C274.494 121.194 280.312 119.811 282.174 117.972C282.316 117.247 282.432 117.186 282.016 116.54C281.933 116.573 281.849 116.605 281.768 116.641C281.693 116.673 281.622 116.714 281.547 116.746C280.778 117.073 280.389 117.136 279.618 116.84C278.98 116.095 279.06 115.068 278.998 114.128C269.9 114.305 272.337 110.913 268.617 109.991L267.881 110.732C266.192 110.673 264.845 108.71 263.04 108.531C263.175 109.149 263.334 109.384 263.05 109.964C260.128 111.047 257.833 105.177 254.715 104.927C253.055 104.795 252.07 106.63 250.925 107.576C250.278 107.725 250.002 107.766 249.408 107.423C247.91 106.559 248.039 103.746 247.497 102.264C247.182 101.403 246.715 100.828 245.876 100.465C245.181 100.811 245.217 101.691 244.616 102.246C241.968 101.109 244.056 98.213 242.736 96.4803C241.786 96.3104 241.345 97.1029 240.403 96.9895C239.582 95.941 238.736 94.908 238.089 93.739C237.902 93.401 238.04 93.2792 238.141 92.9221C240.452 90.8439 247.282 92.5711 250.446 92.5452C251.574 91.5706 252.595 90.9582 253.962 90.3636C250.165 90.0103 246.372 89.8104 242.581 89.3654C241.525 89.8839 240.508 90.5312 239.489 91.1208C234.697 88.6408 229.987 91.5635 225.056 91.7962C223.326 91.8778 221.602 90.9766 219.902 91.2206C219.24 91.3157 218.727 91.4932 218.346 92.0337C219.039 92.6712 220.8 92.8852 221.743 93.1138C222.225 93.5769 222.448 93.8769 222.665 94.5122C222.374 95.0589 221.9 95.0962 221.351 95.3599C217.895 97.0212 213.332 94.9121 212.127 95.5313C212.057 95.5676 211.991 95.6116 211.921 95.6504C208.073 97.8102 208.012 100.61 202.849 100.432C198.976 105.92 198.889 102.417 193.614 104.234C189.453 102.519 184.43 102.237 180.043 100.75C177.624 99.9299 172.566 97.4792 171.475 95.0074C171.208 94.4037 171.461 94.0698 171.665 93.4879C171.622 93.4277 171.587 93.3619 171.537 93.3075C170.994 92.7135 169.752 92.2869 168.971 92.2342C166.277 93.4362 163.328 91.4733 160.377 91.6956C153.357 92.2244 135.854 96.9354 130.172 95.3734C127.769 94.7125 126.313 91.4747 125.202 89.4326C125.569 87.9125 126.031 84.568 125.218 83.1992C123.187 79.7751 118.173 76.581 114.375 75.4642C111.597 74.6471 109.137 74.3985 106.418 73.1854C104.156 74.2443 101.511 74.0103 99.1019 74.7363C98.7313 74.3482 98.3731 73.9389 97.9033 73.6687C96.9545 73.1233 95.748 75.4685 94.5895 75.6944C93.3691 75.9324 92.0875 74.802 91.1799 74.1369C89.6408 74.8289 88.2255 75.7624 86.6749 76.4318C84.4048 77.4118 81.9786 77.8917 79.9179 79.3053C76.0656 79.0106 72.9025 80.3238 69.5187 82.0247C67.8375 82.8698 59.97 87.3417 59.1396 88.685C58.6049 89.5501 59.5729 90.5711 59.5004 91.3795C59.4689 91.7303 59.2156 92.2437 59.1007 92.5921C59.386 93.463 60.1313 93.4797 60.6525 94.1445C61.0178 94.6106 60.7128 96.6738 61.4753 97.9347C67.4332 107.786 70.1405 105.882 68.5391 118.485C66.2247 121.101 64.1559 123.622 60.8038 124.934C59.1591 125.577 57.0238 126.206 55.3362 125.398C54.1351 124.822 53.4807 123.709 53.0302 122.509C51.9316 119.583 52.8929 121.105 53.7396 119.208C52.6818 117.127 50.6328 117.388 49.3368 115.815C48.6236 114.949 48.8759 114.044 48.9269 113.005C48.1089 112.289 47.0473 111.496 46.4843 110.56C46.0591 109.853 45.907 109.149 46.1169 108.342C47.2284 104.065 53.8489 97.9092 56.3228 93.8718C56.9252 92.8887 57.2105 91.7009 57.528 90.601C53.9729 86.4788 55.4939 85.6263 53.7327 82.524C52.488 80.3314 50.5438 78.5692 49.742 76.1184Q49.6375 75.8053 49.565 75.4833Q49.4925 75.1613 49.4526 74.8336Q49.4128 74.5059 49.4061 74.1759Q49.3994 73.8459 49.4258 73.5169Q49.4523 73.1879 49.5117 72.8632Q49.571 72.5385 49.6627 72.2214Q49.7543 71.9043 49.8774 71.598Q50.0004 71.2917 50.1536 70.9993L50.303 70.9261C51.0573 70.5636 51.6988 70.2174 52.5096 70.4954L52.6656 70.9242C51.6904 71.4463 51.1649 71.9373 50.8158 73.0092C50.3505 74.438 50.8538 75.8583 51.5522 77.111C53.0494 79.7961 55.4672 81.6238 57.8903 83.4146C56.8384 84.4382 56 85.46 56.0364 87.0403C56.0417 87.268 56.1298 87.4344 56.2286 87.6326C56.7902 88.0234 56.9133 88.0346 57.5645 88.0906C59.2903 87.0937 59.4184 84.984 60.3128 84.3078C61.2333 83.6118 63.2544 83.8696 64.3887 83.3929C67.5795 82.0519 70.4247 79.9971 73.7109 78.7705C75.2423 78.1988 76.9406 78.2314 78.531 77.9114C83.0461 77.0032 87.0093 75.0162 90.6196 72.2047C91.7748 72.9418 93.1495 74.0896 94.5781 74.0438C95.0832 73.6272 95.2722 73.411 95.2755 72.7176C95.2795 71.8692 94.8959 70.7446 94.7183 69.8877C92.7634 70.8851 88.6696 72.4578 86.4572 71.7452C85.9328 71.5763 85.5733 71.3114 85.3194 70.8181C84.944 70.0888 85.2515 68.8455 85.36 68.0559L83.9759 65.2209ZM58.2947 93.4334C58.2463 93.5313 58.1991 93.6299 58.1494 93.7272C56.086 97.7714 47.5108 105.044 47.2099 109.082C47.7272 110.445 49.1879 111 49.864 112.194C50.2295 112.84 49.9842 113.804 50.315 114.47C51.0064 115.861 54.2101 117.582 55.5272 118.49C54.9257 119.615 53.8015 121.211 54.2893 122.547C54.5843 123.356 55.2624 123.919 55.9287 124.418C58.3535 124.692 61.5453 123.539 63.4399 122.061C64.9112 120.912 66.4142 119.116 67.5038 117.596C67.6414 115.55 68.2248 112.915 67.9419 110.944C67.5149 107.968 61.8631 100.646 59.9638 97.6474C59.1981 96.4384 59.5356 94.7955 58.7902 93.8556C58.6499 93.6787 58.4851 93.5504 58.2947 93.4334ZM90.9445 59.0599C88.0882 60.2019 86.3704 62.2237 85.0327 64.9246C85.734 65.9444 86.4831 66.8347 86.589 68.1006C86.6535 68.8718 86.7019 69.6377 86.7179 70.4118L87.1043 70.696L88.0932 70.4722C90.41 70.006 92.8399 69.6712 95.0184 68.7404C94.9085 66.084 94.465 61.5724 92.4373 59.6412C92.0208 59.2445 91.4981 59.1308 90.9445 59.0599ZM213.263 93.0476C213.307 93.6156 213.26 93.7774 213.703 94.1861C214.787 95.187 217.693 94.8418 219.086 94.7303C219.525 94.6951 219.932 94.62 220.355 94.4976C219.457 93.5163 217.05 93.244 215.743 93.1901C214.901 93.1554 214.103 93.1848 213.263 93.0476Z"/>
</svg>
