<?xml version="1.0" encoding="utf-8" ?>
<svg xmlns="http://www.w3.org/2000/svg" xmlns:xlink="http://www.w3.org/1999/xlink" width="360" height="360" viewBox="0 0 1781.1 1515.23">
    <defs><style> .cls-1{fill:#fff;}.cls-2,.cls-3{fill:#080808;}.cls-2,.cls-5{stroke:#080808;}.cls-4{mask:url(#mask);}.cls-5{fill:none;stroke-width:2px;}.cls-6{mask:url(#mask-2);}.cls-7{fill:#c8102e;}.cls-8{fill:#003087;}.cls-9{fill:#ffcd00;} </style> <mask id="mask" x="631.54" y="796.71" width="1156.71" height="633.55" maskUnits="userSpaceOnUse"><g id="path-4-outside-1_3_139" data-name="path-4-outside-1 3 139"><rect class="cls-1" x="631.54" y="796.71" width="1156.71" height="633.55"/><path d="M1717.82,810.44l5.1-4.13c1.3.49,1.88.5,2.78,1.61-6.08,19-5,35.24-5.84,54.72A120.15,120.15,0,0,1,1705,879.16c-4.62.19-8.85-.47-12.75,2.13,1.82,18.45,13.7,10.3,3.3,38.16,1.75,8.54,3.12,17.42,5.7,25.74,14.7,12.24,26.35,26.31,42.7,36.65.07,14.85,3.46,36.45-5.47,48.55.16,2.18-.3,2.64,1.34,4.18,9,8.48,30.63,78.81,30.15,92.2-.2,5.71-4.57,9.51-8.23,13.45,4.19,3.83,8.78,7.61,12.6,11.79,1.7,13.77,7.85,27.61,7.37,41.31-3.91,4.28-8.09,8.46-11.39,13.24-1.1,8.1-4.22,17.52-4.27,25.54,0,6.82,3.78,15.64,2.74,22a8.89,8.89,0,0,1-3.92,5.67c-4.1,2.87-10.32,3.59-15.17,4.49-6.68,17.51-7.38,30.68-6.52,49.11-8.56,12.93-16.71,26.58-26.41,38.68-.08,9.6,2.67,33.78-3.71,40.22-14.37,1.82-42.36-27.1-57.11-33.61-5.91-2.61-13.19-3-19.54-3.65-3.26-3-6.61-5.91-9.73-9-8.72-8.75-20.62-14-30.43-21.45-7.7-5.85-13.68-13.45-22-18.49.21-15.54.73-31.14.56-46.67-7-4.22-16.64-8.88-19.65-17a43.6,43.6,0,0,1,1.87-9.33c-5.06-14.54-10.4-26.63-13.66-41.92,6.42-14.33,3.88-24.48,7.75-38.34,3-10.66,9.93-20.4,12.2-31.16a13.73,13.73,0,0,0-.57-8.59c-2.34-5.47-8.81-12.22-8.79-17.81,5.71-10,16.55-12.93,26.37-17.75,3.5-7.1,6.87-12.44,12.63-18-1.59-9-3.33-17.67-5.78-26.44l-9.48-8.84a248.39,248.39,0,0,1-1-26.44c-11.42.45-16,.07-25.24-6.81-8.77.49-17.58,1.89-25.92-1.45-1.92-2.06-3.17-2.71-3-5.81.37-9.15,9.86-20.35,12.79-29.44,3.54-10.93,3.09-22.51,6.84-33.59a102.21,102.21,0,0,1-15.1-19.17c-12.41.74-26,6.15-37.66,10.3-10.12,27.63-13.22,26.19-38.35,41.71-2.24,6.26-4.17,12.68-8,18.17-7.39,1.56-14.78,3.26-22.22,4.54-4.2-1.89-7.33-3.57-12.07-3.14-2.32,2.17-3.22,4.27-4.44,7.12-4.25,3.7-7.2,4-12.75,3.63l-3.39-.27c-2.79,1.4-4.94,2.47-5.93,5.69a30.35,30.35,0,0,0-.74,5.56c-.28,2.64-.67,6-2.71,7.81-4.74,4.3-18.51,2.5-24.83,2.78-15.79,13-25.61,7.39-39.63,16-2,1.2-3.91,2.36-5.83,3.6-9.81-3.67-28.56-13.44-38.88-9-5.67,2.4-5.93,11.63-11.41,14-7.79,3.42-20.73-4.39-24.31,7.37-4.59,15.07,17.83,30.24-2.67,43.7-3.28,2.16-7.37,3.59-11,5.07a126.36,126.36,0,0,1-22.08-16.27c-8.7-8.16-21.63-30-32.78-32.39-8,2.72-8.63,18.31-19.19,12.5-4.86-2.68-8.78-8-12.35-12.16a64.59,64.59,0,0,1-9.6,3.77c-4.83,1.25-10.3.43-15.27,1.35-7.29,1.35-12.42,6.72-20.39,5.64-3.59-2.29-4-3-5-7.15-1.86-7.26-2.18-12.77-9.41-17.1-13.11-7.86-34.54-2.59-49-1-4.43-5-13.75-17.74-20.44-18.51-.48-.06-1-.05-1.48-.07l-2.33,2.17c1.12,6.34,6.72,9.06,10.4,14,9,11.94,15.27,26,27.83,34.87,9.62,6.82,29.2,13,31.52,26.49,2.4,14-5.32,29.48-2.6,44.35,6.35,34.68,41.79,37.21,21.44,82.16,8.88,1,17.69,4,26.42,4.73,12.7,1,44.39-6.19,52.81,5.19,2.79,3.78,2.58,9,1.61,13.3-1.5,6.85-4.78,13.17-8,19.35l-17.74-.23c-6.36,3.83-12.12,9.39-18.49,12.81-11.3,6.06-33.83,3.09-37.5,18-1.88,7.66-.77,17.29-.6,25.19q-14.81,12.53-29.82,24.84c-3.15-3.32-6.24-6.79-9.56-9.94a119,119,0,0,0-12.11,8.55c-6,5-21,24.5-28.06,23.12-2.16-.42-4.32-2.17-6.13-3.38-9.07.11-22.4,14.55-33.73,16.57-1.51.27-3,.58-4.53.85-2.13,7.73-4.22,15.39-7.08,22.89-9.23,1.07-16.64,1.24-22.75,9.44-5.61,7.52-1.77,18.73-13,20.33-4,.58-7.65.52-11.38-1.09-1.79-3.15-2.08-4.49-.88-8,2.74-8,9.6-15.32,6.49-24.17-3.37-3.78-6.33-6.17-11.59-6.38-21.18-.89-33.52,22.6-51.18,29.41-5.65,2.19-20.39-.89-28.38.79-16.73-14.85-55.64-43.37-64.65-62.11s-13.51-42-19.9-62c-4-12.7-6.38-27.38-13.8-38.56-5-7.53-4-12.84-2.44-21.15-10.32-11-22.41-26.3-35.82-33.12-4-2-9.39-4.4-10.95-8.77a53.21,53.21,0,0,1-1.56-6c-8.77-8.83-25.94-.35-34-7.08,2.46-18,75.85-58.31,67.37-69.68-3-4.05-8.37-6.28-11.3-10.43-3.47-4.93-1.29-13.24-4.7-18.3-7.91-11.75-19.32-3.86-23.64-23.58-.73-3.3-1.93-7.29-1.62-10.68,0-.49.12-1,.18-1.47l3.28.86c.14,2-.15,3.56,1.12,5.19a171.84,171.84,0,0,1,8.63,16.88c6.52,1.71,14.1,2.93,17.54,9.49,2.38,4.52,2.61,11,3.2,16.06,6.6,5.41,15.06,10.51,16.26,19.58-5.42,16.32-52.84,48.41-67.71,62.53,7.15,0,16.2-.9,23,1.47,7.27,2.55,41.09,36.91,48.76,44.58,2.65,2.64,10.09,8.58,10,12.45-.07,2.19-.89,3.89-1.68,5.9-1,2.57-2.21,5-1.06,7.69a33.91,33.91,0,0,0,4.35,7c6,7.95,7.48,21.74,10.33,31.31,3.51,11.8,21.15,66.76,25.72,73.77,7.18,11,45.27,42.44,56.94,51.11,10.55-4.22,18.39.52,25.7-2.08,22.33-7.93,32.28-36.27,62-23.35,4.05,1.76,7.79,4.68,9.45,8.9a15.86,15.86,0,0,1-.91,12.63c-2.39,4.51-7.28,9.37-7.4,14.54,3,.87,3.65.23,6.48-.82,6.4-6,6.46-16.34,11.8-23.32,5.22-6.83,12.94-3.39,18.59-7.76,5.35-4.13,3.82-12.72,7.69-17.55,5.25-6.55,32.73-18,41.61-22.42l6.34,3.29c8.76-1,17.46-13.88,23.75-19.84,12.59-12,14.91-6.88,28.63-7.09,8.73-.13,16.73-10.06,22.65-15.69l.45-25.54,2.16-4.91,4.62-5.71,13.16-4.7c25.32-2.2,28.66-16.8,54.5-17.61,2.65-4.85,6.86-11.53,6.39-17.23a9.17,9.17,0,0,0-3.7-6.51c-6.88-5.19-23.07-2.39-31.22-.84-6.6,1.08-13.5.72-20.17.69-6.47-1.94-12.88-4.35-19.72-4-10.1-11.39,1.34-25.46-.79-39.21-2.54-16.36-16.33-25.21-23.14-39.13-7.77-15.86-4.2-38.49,1.1-54.43-11.35-11.68-25.71-18.74-37.59-29.75-8-7.4-34.92-37.47-34.77-47.71,0-2.62.68-4.83,2.8-6.57,1.86-1.53,5.63-3.24,8.11-3,9.32.88,16.74,11.39,22.36,18,21.2.06,34.72-6.86,54.66,4.22,4.22,7.52,6.82,15.91,9.73,24,10.83-6.9,19.48-9.49,32.18-10.63,6.65-.6,13.18-.35,18.44,4.2,1.83,1.57,3.76,3,5.67,4.44,6.59-1,9-9.44,16-10.94,13.35-2.84,26.87,23.61,35.23,31.9,6.42,6.37,14.25,11.22,21.76,16.2a41.44,41.44,0,0,0,10-6.77c5.41-11-3.56-23.86-3.39-35.38a11.85,11.85,0,0,1,4.4-9.51c5.9-4.66,14.13-3.86,21.12-3.33,4-5,8.84-11.56,14.86-14,11.27-4.61,25.57,3.12,36.14,7.12,10.79-3.77,21.85-4.73,32.53-8.16,6-1.93,11-7.07,17.06-8.51,6.27-1.5,12.54.06,18.88-2.06,3.43-3.66,2.78-7,3.22-11.9,6.24-10.84,15.94-4.36,22.57-11.18,4-4.15,1.82-7.74,8.43-10.82,5.59-.27,10.5,2.88,15.33,5.34,4.92-1,12.21-2,16.53-4.42,3.64-2,6.13-14,10.38-18,7.09-6.64,17.51-9.26,24.71-16,6.65-6.2,6-16,6.13-24.31,3-2.63,10.71-2.21,14.89-3.53,8.63-2.75,16.58-7.35,25.16-10.16,2.9-1,4.78-.5,7.42,1.06,7.08,4.19,19.54,18,21,26.07.55,3-7.09,41.72-8.54,45-2.86,6.4-8.24,12.58-12.41,18.22,11.44-.41,48,2.68,55.82,9.92,4.16,3.86,2.56,21.3,2.56,27l8.8,8.79c3.51,12.82,4.66,24.85,4.84,38-5.56,5.12-9.87,13.35-16,17.47-6.41,4.3-17.63,4.46-21.22,12.07,1.56,4.05,6.41,4.6,10.3,6.48,4.62,15.42-10.51,36-14.37,50.66-3.38,12.92-2.64,25.32-7.3,38.25,5.27,15.7,6,27.06,17.6,39.87-2.11,4.31-3.88,7.33-3.38,12.29,2.84,5.45,11,8.23,16.42,11,.5,15.26.06,30.66,0,45.93,8.5,5.85,14.24,14.49,20.35,22.65,17,5.34,24,12.73,36,25.19a144.16,144.16,0,0,1,33.93,7.61l5.39,10.83a120.77,120.77,0,0,1,34.26,21.84q.1-20.82.44-41.62c8.23-12.26,16.93-23.69,24.72-36.39-.48-10.73-1.31-21.68.38-32.35,3.48-22.09,9.06-14.65,21.06-24.48,10.14-8.31-1.83-14.46-1.29-22.69.54-8.49,6.26-18.67,7.09-29.2,3.67-5.29,8.22-10.2,12.36-15.16a87.05,87.05,0,0,1-7.53-30.15c-5.62-4.65-10.12-10.15-14.82-15.7l10-17.6c-6.45-22-16-62.69-27.79-80.81-2.77-4.28-6.76-7.76-10.54-11.14l13-14.38c.55-10.1.24-20.35.29-30.47-16.18-11.89-30.15-25.89-44.56-39.81-2.17-9.8-3.55-19.74-5.79-29.57,2-4,5.2-8.72,5.63-13.17.63-6.56-4.1-10.17-7.88-14.77-3-3.69-3.36-6.54-2.86-11.17,5.08-7.58,11.33-4.67,18.9-6.72C1720.69,866.79,1708.07,829,1717.82,810.44Z"/></g></mask><mask id="mask-2" x="149.32" y="75.94" width="1593.48" height="590.35" maskUnits="userSpaceOnUse"><g id="path-6-outside-2_3_139" data-name="path-6-outside-2 3 139"><rect class="cls-1" x="149.32" y="75.94" width="1593.48" height="590.35"/><path d="M366.37,126.08c5.08-17,11.77-27.82,27.71-36.59,5.08-2.8,11.06-5.09,16.88-3.34s9.39,7.17,11.85,12.26c6.77,14,11.79,65.49,27.09,69.63,9,2.43,29.29-1.45,38-4.83,16.33,4.85,35.45,8.14,50.89,13.57,21.6,7.59,48.16,25.45,59.07,45.85a44.39,44.39,0,0,1,4.42,12.85c.54,2.59,1.2,5.17,1.79,7.76l-6.14,13.32c4.35,7.78,11.89,24.13,21.13,26.5,20.07,5.16,72.93-1.9,94.3-5.89,10.67-2,21-5.51,31.65-7.84a301.13,301.13,0,0,1,45.43-6c10.13-.57,20.84,2.57,31,3.27s23.68.27,31,8.61c.93,4.89.67,9.57.47,14.5C878.43,308.64,904,319,935,325.42c10.64,2.19,21.51,3.37,31.85,6.81,12.37-4.3,18.89-4.15,31.72-1.61,2.83-4.51,6.16-11.23,10.54-14.3,6.56-4.59,16.3-5.36,23.59-9.1,10.09-5.19,19.5-13.46,29.12-19.71-4.92-5.74-11.45-11.51-10.81-19.68.11-1.48,1.48-2.64,2.36-3.8,7.77-3.31,14.46-.43,22,2.08,4.56-2.21,7.54-3.63,12.75-3.29,13.72.88,40.86,1.57,54,.95s26.65-4.64,39.73-6.48c10.08-1.43,20.27-.67,30.38-1.56,10.33-.92,20.45-3.29,30.83-3.85,16.29-.87,32,3.73,48.32,3.49,11.43-.15,34.37-5.57,43.08,2.64.21,2.77.38,3.53-1.44,5.88-6.8,8.74-32.56,8.78-42.81,10.05l-10.86,9.26c-21.64-.25-42.77-3.84-64.37-1l1.19.49a48.13,48.13,0,0,0,9.37,2.79c6.27,1.18,15.42,6.91,19.2,12,1.39,1.9,1.51,3.18.93,5.47a17.39,17.39,0,0,1-2,3.84c.79,3.25.93,3.18,3.61,5.22,5.38.4,10.55.2,14.3,4.63,7.38,8.69,9,24.13,10.92,35,7.69-7.32,19.07-18.52,30.61-17.68,13.07.95,16.39,22.73,29.88,23.47,3.28.18,5.86-2.86,8.66-3.3,4.76-.77,8,3.56,12.74,1.8,1.58-3.73,2-6.07,5.52-8.34,6.45-.43,11.24,3.68,16.36,7.12,4.88,5.63,9.48,15.21,15.21,19.27,5.94-1.12,7.56-1.18,12.63,2.32,12.62,8.73,10.2,10.84,28,8.23,6.37,6.37,26.4,20.42,26.63,29.9.16,6.65-9.52,9.72-9.2,14.4,5.39.47,11.27.34,14.93,5,2.35,3,5.41,8.14,4.82,11.82l-1.9.64c-4.45-4.14-7.45-9.15-14.3-8.85-2.45.11-3.24,1-5.27,2.39L1446,444l.89,2.15c4.28,1.19,10.42.8,13.4,3.8-.63,2.9-.49,3.24-2.73,5.11-3.69-1-6.82-2.79-10.38-1.17-.06,5.15,2,8.88.19,13.82-2.69,1.81-4.94,2.62-8.23,1.84-5.5-1.3-12.28-7.07-17.77-6.12-2.56,2.15-3.5,2.52-4.43,5.81,3.14,4.74,4.6,9.47,10.09,11.17,4.81-1.64,9-3.95,13.86-1.81,1,2.06,1.2,2,.49,4.27-2,6.25-7.3,12.51-11.07,17.91,10.07-.34,23.47.68,32.14-5.05q1.68-4.79,3.15-9.63c3.39.29,6.87,3.09,9.25,5.49a8.47,8.47,0,0,1,1.68,2.83l-.8.35a13.09,13.09,0,0,0-4.92,3.13c2.78,4,8.82,4.45,13.37,5.25,4.19.74,8.44,1.81,12.68,1.08,1.66-2.43,2-4.45,2.38-7.27,3.06-3.35,8.65-4.08,13-4.27,16.74-.68,38.92,8.54,50.71,20.28a67.7,67.7,0,0,1,8.18,10.65c5.53-6.21,10.51-11.67,19.47-12,18.36-.78,49.84,22.6,62.4,35.31,7.63,7.7,14.15,16.44,21.66,24.27,15,15.64,42.29,37.67,52.71,55.49,4.81,8.2,4,17.88,9.19,26.57.14.23.27.47.41.71-2.4,3-2.52,3.3-6.41,4.38-5.07-9.74-5.69-22.35-11.21-31.06-12.87-20.28-34.44-35.75-51-52.87-10.48-10.81-18.44-23.47-30.89-32.39-11.43-8.2-35.28-26.17-50-23-8.08,1.77-12.16,9.34-16.06,15.84-6.15-8.89-11.37-15.64-19.94-22.25-7.39-5.7-15.73-11.23-25.44-10l-.8,1.26c3.45,2.5,6.63,4.62,9.15,8.13l-.61,2.24c-11.31,5.56-20.1-5.39-31.49-5.43-2,1.29-4.73,3.29-7.14,3.73-7.1,1.3-31.7-8.49-49.39-5.81-3.62.56-5.29.46-7.53,3.55.26,3.14,1,6.27-.74,9.08-7.85,1.76-14.32-1.64-21.3-4.88-28.17-13.11-1.15-27.05-5.29-38.46-7.07-.49-12.28,5.29-19,3.78l-1-2.93c3.56-10.93,21.75-8.35,31.89-24.73-1.21-2.47-13.28-.33-17.24-2.34l-.73-3c3-14.71,34.79-22.27,45-32.32.77-4,1.41-4.3-.87-7.83l-1.36.55c-.4.18-.79.4-1.2.58-4.21,1.79-6.33,2.13-10.55.51-3.49-4.07-3-9.68-3.39-14.82-49.73,1-36.41-17.57-56.74-22.61l-4,4c-9.24-.32-16.6-11.05-26.47-12,.74,3.38,1.61,4.66.06,7.84-16,5.92-28.52-26.17-45.56-27.54-9.07-.72-14.46,9.31-20.72,14.48-3.54.82-5,1-8.29-.83-8.19-4.73-7.49-20.1-10.45-28.21-1.72-4.7-4.27-7.84-8.86-9.83-3.8,1.9-3.6,6.71-6.89,9.74-14.47-6.22-3.06-22.05-10.27-31.52-5.2-.93-7.61,3.4-12.76,2.78-4.49-5.73-9.11-11.37-12.64-17.77-1-1.84-.27-2.51.28-4.46,12.63-11.36,50-1.92,67.26-2.06a69.73,69.73,0,0,1,19.22-11.92c-20.76-1.93-41.49-3-62.21-5.46-5.77,2.83-11.33,6.37-16.9,9.59-26.2-13.55-51.94,2.43-78.9,3.7-9.46.44-18.88-4.48-28.17-3.15-3.62.52-6.42,1.49-8.5,4.44,3.78,3.49,13.41,4.66,18.57,5.91a16.56,16.56,0,0,1,5,7.64c-1.6,3-4.19,3.2-7.19,4.63-18.89,9.09-43.84-2.44-50.42.95-.38.19-.74.43-1.13.64-21,11.81-21.36,27.12-49.59,26.14-21.16,30-21.64,10.85-50.48,20.78-22.74-9.37-50.2-10.91-74.18-19-13.22-4.48-40.87-17.88-46.83-31.39-1.46-3.3-.08-5.13,1-8.31a10.84,10.84,0,0,0-.69-1c-3-3.25-9.76-5.58-14-5.87-14.73,6.57-30.85-4.16-47-2.94-38.37,2.89-134,28.64-165.11,20.1-13.13-3.61-21.09-21.31-27.16-32.47,2-8.31,4.53-26.59.08-34.08-11.1-18.71-38.51-36.17-59.27-42.28-15.18-4.46-28.63-5.82-43.49-12.45-12.37,5.78-26.82,4.5-40,8.47-2-2.12-4-4.36-6.55-5.83-5.19-3-11.79,9.84-18.12,11.07-6.67,1.3-13.68-4.88-18.64-8.51-8.41,3.78-16.15,8.88-24.62,12.54-12.41,5.36-25.67,8-36.94,15.71-21.05-1.61-38.35,5.57-56.84,14.86-9.19,4.62-52.2,29.07-56.74,36.41-2.92,4.73,2.37,10.31,2,14.73-.18,1.92-1.56,4.72-2.19,6.63,1.56,4.76,5.63,4.85,8.48,8.48,2,2.55.33,13.83,4.5,20.72C276,358.75,290.75,348.34,282,417.23c-12.65,14.31-24,28.09-42.28,35.26-9,3.51-20.66,6.95-29.89,2.53-6.56-3.15-10.14-9.23-12.6-15.79-6-16-.75-7.67,3.88-18-5.79-11.38-17-9.95-24.07-18.55-3.9-4.74-2.52-9.68-2.24-15.36-4.47-3.91-10.28-8.25-13.35-13.36a15,15,0,0,1-2-12.13c6.07-23.38,42.26-57,55.79-79.1,3.29-5.37,4.85-11.87,6.58-17.88-19.43-22.53-11.11-27.19-20.74-44.15-6.81-12-17.43-21.62-21.82-35a35,35,0,0,1-1-3.47,35.06,35.06,0,0,1-.87-7.15,33.3,33.3,0,0,1,.11-3.6c.09-1.2.25-2.39.46-3.58s.5-2.35.83-3.5a36,36,0,0,1,1.17-3.41c.45-1.12,1-2.21,1.51-3.27l.82-.4c4.12-2,7.63-3.88,12.06-2.36l.85,2.35c-5.33,2.85-8.2,5.53-10.11,11.39-2.54,7.81.21,15.58,4,22.42,8.18,14.68,21.4,24.67,34.64,34.46-5.75,5.6-10.33,11.18-10.13,19.82a7.38,7.38,0,0,0,1,3.24c3.07,2.13,3.74,2.2,7.3,2.5,9.44-5.45,10.14-17,15-20.68s16.08-2.39,22.28-5c17.44-7.33,33-18.56,50.95-25.27,8.37-3.12,17.66-2.94,26.35-4.69,24.68-5,46.35-15.83,66.08-31.2,6.31,4,13.83,10.31,21.64,10.06,2.76-2.28,3.79-3.46,3.81-7.25,0-4.64-2.07-10.79-3-15.47-10.69,5.45-33.07,14-45.16,10.15a9.71,9.71,0,0,1-6.22-5.07c-2.05-4-.37-10.78.22-15.09ZM226,280.29c-.26.54-.52,1.08-.79,1.61-11.28,22.11-58.15,61.86-59.8,83.93,2.83,7.46,10.82,10.49,14.51,17,2,3.54.66,8.81,2.47,12.45,3.78,7.6,21.29,17,28.49,22-3.29,6.15-9.44,14.88-6.77,22.18,1.61,4.42,5.32,7.5,9,10.22,13.26,1.5,30.7-4.8,41.06-12.88,8-6.28,16.26-16.1,22.21-24.4.76-11.19,3.95-25.59,2.4-36.37-2.34-16.26-33.23-56.29-43.61-72.68-4.19-6.61-2.34-15.59-6.42-20.73A10,10,0,0,0,226,280.29ZM404.47,92.4c-15.61,6.24-25,17.3-32.32,32.06,3.83,5.57,7.93,10.44,8.51,17.36.35,4.22.62,8.4.7,12.63l2.12,1.56,5.4-1.23c12.67-2.54,25.95-4.37,37.85-9.46-.6-14.52-3-39.18-14.1-49.74C410.35,93.41,407.49,92.79,404.47,92.4Zm668.62,185.79c.24,3.1,0,4,2.41,6.22,5.92,5.47,21.8,3.58,29.42,3a34.19,34.19,0,0,0,6.94-1.27c-4.91-5.36-18.07-6.85-25.22-7.14C1082,278.78,1077.68,278.94,1073.09,278.19Z"/></g></mask> </defs><path class="cls-2" d="M1739.3,653.38l-1.08-4.84-3.12,3.86-.2.24a12,12,0,0,1-2,2.22,9.35,9.35,0,0,1-3,1.12l-1.68.47-.08,1.74c-.14,3.73,0,7.87.13,12,.06,1.79.12,3.57.16,5.32.12,5.91,0,11.52-1.16,16.24h0c-1.5,6.2-4.6,11.74-7.89,17.6l-1.16,2.08c-3.63,6.53-7.23,13.53-8,21.77h0c-1.14,12,.78,23.42,2.71,34.81l.45,2.66c2.07,12.38,3.91,25,2,39.47l-.75,5.94,4.65-3.76,4-3.28.05,0h0s.15.07.39.38l3.34,4.15.9-5.25c2.49-14.56.19-27.4-2.24-39.24-.18-.86-.36-1.72-.53-2.57-2.27-10.95-4.34-20.93-3-31.2L1720,735l2.38.32c1-7.7,4.24-14.36,7.83-21.22l1.1-2.11c3.23-6.12,6.61-12.52,8.41-19.7h0l.24-1C1742.79,679.9,1741.79,664.56,1739.3,653.38Z"/><path class="cls-2" d="M251.33,124.68l.6-2.32c-5.09-1.31-9,.12-12.84,2.65h0c-1.19.79-2.39,1.68-3.52,2.53l-1.33,1a28.86,28.86,0,0,1-4.58,2.86h0a39.31,39.31,0,0,1-10.72,2.76c-1.77.26-3.56.47-5.33.68l-.75.09c-2,.24-4,.49-5.82.8h0a105.72,105.72,0,0,0-29.4,9.87c-9.63,4.89-18.56,11.38-24.51,19.23-4.61,6.07-8.09,12.88-11.37,19.57-.41.84-.82,1.67-1.22,2.5a169.66,169.66,0,0,1-8.69,16.33c-1.66.72-3.47,1.44-5.36,2.2l-.06,0c-2.15.86-4.41,1.77-6.64,2.74a53,53,0,0,0-12.38,7.08c-4,3.33-8.81,8.92-13.78,15.57s-10.32,14.61-15.37,22.71C68.18,269.7,59,286.8,55.09,296.62c-4.43,11.18-6.85,26.15-9.24,40.94l0,.22c-2.43,15-4.84,29.9-9.19,41.29a62.65,62.65,0,0,1-5.42,11.69l2,1.3-2-1.3c-1.59,2.49-4.49,6.22-8,10.75l-.27.34c-3.61,4.63-7.77,10-11.56,15.4a98.34,98.34,0,0,0-9.47,16c-2.15,4.89-3.41,10-1.71,14.06a6.6,6.6,0,0,0,2.56,3.14,13.4,13.4,0,0,0,1.35.74l.14.07c.37.18.7.34,1.06.54l.44.26.51.05c12,1.12,22.16-4.67,30.41-10l2.85-1.85a96.09,96.09,0,0,1,8.43-5.11c2.95-1.51,5.34-2.22,7.38-2.08a49.64,49.64,0,0,1,2.62,5.12c.4.86.82,1.76,1.28,2.69,1.53,3.12,3.48,6.53,6.61,8.66l.55.38.66,0a15.77,15.77,0,0,0,7.73-1.86l.3-.13a11.13,11.13,0,0,1,4.62-1.34c3.46,4.43,4.83,10.81,5.81,18.14.19,1.43.36,2.89.54,4.37.75,6.26,1.54,12.86,3.67,18.31,4.07,10.4,10.58,19.07,16.74,27.28l1.12,1.49c6.55,8.76,12.49,17,15.28,26.82a75.45,75.45,0,0,1,2.1,11.33c.19,1.51.37,3.07.54,4.63.22,2,.44,4,.69,5.86a28.31,28.31,0,0,0-8.09,9c-2,3.67-3,7.8-3.92,12.78a113.3,113.3,0,0,0-1.33,28.68c.87,9.93,3.32,19.82,8.26,27.66l1.5,2.36,2.11-1.84.8-.68a19.63,19.63,0,0,0,5.35-6.12l.89-1.79-1.6-1.2-1-.73a7.9,7.9,0,0,1-1.24-1,4.25,4.25,0,0,1-.91-1.87h0c-1.81-6.1-3-16.27-2.93-26.42a89.25,89.25,0,0,1,1.21-14.42,33.21,33.21,0,0,1,3.44-10.69h0c.75-1.3,2-2.07,3.86-3.29l.14-.09a14.35,14.35,0,0,0,5.62-5.62l.33-.66-.09-.72c-1.57-12.35-3.37-22-6.8-31.08s-8.45-17.5-16.3-27.41c-5.89-7.44-11.07-14.81-14.44-23.44l-2.24.88,2.24-.88a61.5,61.5,0,0,1-3-11.66c-.38-2.18-.72-4.43-1.07-6.72l0-.31c-.33-2.19-.67-4.41-1-6.61-1.54-9-3.8-18.47-9.7-24.35l-.42-.42-.57-.18a17.14,17.14,0,0,0-8.09-.41c-1,.16-2,.37-3,.58l-.53.11c-.83.18-1.66.34-2.5.48-1.52-1.37-2.29-3.29-3.17-5.78,0-.16-.11-.31-.16-.46-.9-2.57-2-5.87-5-8.08-3.32-2.52-7.38-2.62-11.29-1.71a46.83,46.83,0,0,0-12,5.2c-3.38,1.95-6.75,4.17-9.8,6.18l-1.53,1a60.17,60.17,0,0,1-8.52,5,37.15,37.15,0,0,1-8,2.07c1.15-2,2.23-4.11,3.3-6.14l.3-.58a119.87,119.87,0,0,1,6.15-10.75h0c2.72-4.11,5.61-7.95,8.55-11.85,2-2.64,4-5.32,6-8.13,4.84-6.78,9.3-14,12.08-22.32,3.92-11.73,6-24.94,8-37.9l.54-3.49c2.2-14.17,4.56-27.86,9.39-39.43l-2.22-.93,2.22.93c3.81-9.15,11.93-24.75,21.08-39.61,4.57-7.42,9.37-14.62,14-20.71s9-11,12.74-13.9l-1.47-1.89,1.47,1.89c5.87-4.57,13.05-7.52,20.35-10.51l4.21-1.75.64-.27.4-.58a129.26,129.26,0,0,0,8.18-14.28q1-1.95,2-3.93c1.92-3.8,3.85-7.62,5.91-11.33,5.57-10,11.88-18.57,20.86-22.9,1.52-.74,1.8-.76,2-.76a2.09,2.09,0,0,1,.59.13c.36.12.77.28,1.4.52l.29.11,1,.37.94-.46.8-.39h0l.3-.14c3.71-1.79,6.11-2.94,8.88-2.39l.43,1.19.75,2.06,2.12-.57c3.49-.92,8.65-1.82,14.7-2.88l.3-.05c6.13-1.08,13.06-2.29,19.74-3.83A102.57,102.57,0,0,0,249.17,147c5.26-2.38,9.83-5.48,11.92-9.73a9.09,9.09,0,0,0,1-3.85,8.34,8.34,0,0,0-1-3.91h0a14.09,14.09,0,0,0-3.93-4.47,15.19,15.19,0,0,0-5.23-2.67Zm0,0ZM124.7,630.85c-3.81-12.81-4.91-41.72,2-53.42Zm0,0c.73,2.45,1.5,3,3.2,4.26m-3.2-4.26,3.2,4.26m131-498.91c-5.13,10.49-30.48,14.92-48.91,18.14-6,1-11.2,2-14.8,2.92Zm0,0a5.7,5.7,0,0,0,0-5.6Zm-131,498.91.79.58Z"/><path class="cls-3" d="M1717.82,810.44l5.1-4.13c1.3.49,1.88.5,2.78,1.61-6.08,19-5,35.24-5.84,54.72A120.15,120.15,0,0,1,1705,879.16c-4.62.19-8.85-.47-12.75,2.13,1.82,18.45,13.7,10.3,3.3,38.16,1.75,8.54,3.12,17.42,5.7,25.74,14.7,12.24,26.35,26.31,42.7,36.65.07,14.85,3.46,36.45-5.47,48.55.16,2.18-.3,2.64,1.34,4.18,9,8.48,30.63,78.81,30.15,92.2-.2,5.71-4.57,9.51-8.23,13.45,4.19,3.83,8.78,7.61,12.6,11.79,1.7,13.77,7.85,27.61,7.37,41.31-3.91,4.28-8.09,8.46-11.39,13.24-1.1,8.1-4.22,17.52-4.27,25.54,0,6.82,3.78,15.64,2.74,22a8.89,8.89,0,0,1-3.92,5.67c-4.1,2.87-10.32,3.59-15.17,4.49-6.68,17.51-7.38,30.68-6.52,49.11-8.56,12.93-16.71,26.58-26.41,38.68-.08,9.6,2.67,33.78-3.71,40.22-14.37,1.82-42.36-27.1-57.11-33.61-5.91-2.61-13.19-3-19.54-3.65-3.26-3-6.61-5.91-9.73-9-8.72-8.75-20.62-14-30.43-21.45-7.7-5.85-13.68-13.45-22-18.49.21-15.54.73-31.14.56-46.67-7-4.22-16.64-8.88-19.65-17a43.6,43.6,0,0,1,1.87-9.33c-5.06-14.54-10.4-26.63-13.66-41.92,6.42-14.33,3.88-24.48,7.75-38.34,3-10.66,9.93-20.4,12.2-31.16a13.73,13.73,0,0,0-.57-8.59c-2.34-5.47-8.81-12.22-8.79-17.81,5.71-10,16.55-12.93,26.37-17.75,3.5-7.1,6.87-12.44,12.63-18-1.59-9-3.33-17.67-5.78-26.44l-9.48-8.84a248.39,248.39,0,0,1-1-26.44c-11.42.45-16,.07-25.24-6.81-8.77.49-17.58,1.89-25.92-1.45-1.92-2.06-3.17-2.71-3-5.81.37-9.15,9.86-20.35,12.79-29.44,3.54-10.93,3.09-22.51,6.84-33.59a102.21,102.21,0,0,1-15.1-19.17c-12.41.74-26,6.15-37.66,10.3-10.12,27.63-13.22,26.19-38.35,41.71-2.24,6.26-4.17,12.68-8,18.17-7.39,1.56-14.78,3.26-22.22,4.54-4.2-1.89-7.33-3.57-12.07-3.14-2.32,2.17-3.22,4.27-4.44,7.12-4.25,3.7-7.2,4-12.75,3.63l-3.39-.27c-2.79,1.4-4.94,2.47-5.93,5.69a30.35,30.35,0,0,0-.74,5.56c-.28,2.64-.67,6-2.71,7.81-4.74,4.3-18.51,2.5-24.83,2.78-15.79,13-25.61,7.39-39.63,16-2,1.2-3.91,2.36-5.83,3.6-9.81-3.67-28.56-13.44-38.88-9-5.67,2.4-5.93,11.63-11.41,14-7.79,3.42-20.73-4.39-24.31,7.37-4.59,15.07,17.83,30.24-2.67,43.7-3.28,2.16-7.37,3.59-11,5.07a126.36,126.36,0,0,1-22.08-16.27c-8.7-8.16-21.63-30-32.78-32.39-8,2.72-8.63,18.31-19.19,12.5-4.86-2.68-8.78-8-12.35-12.16a64.59,64.59,0,0,1-9.6,3.77c-4.83,1.25-10.3.43-15.27,1.35-7.29,1.35-12.42,6.72-20.39,5.64-3.59-2.29-4-3-5-7.15-1.86-7.26-2.18-12.77-9.41-17.1-13.11-7.86-34.54-2.59-49-1-4.43-5-13.75-17.74-20.44-18.51-.48-.06-1-.05-1.48-.07l-2.33,2.17c1.12,6.34,6.72,9.06,10.4,14,9,11.94,15.27,26,27.83,34.87,9.62,6.82,29.2,13,31.52,26.49,2.4,14-5.32,29.48-2.6,44.35,6.35,34.68,41.79,37.21,21.44,82.16,8.88,1,17.69,4,26.42,4.73,12.7,1,44.39-6.19,52.81,5.19,2.79,3.78,2.58,9,1.61,13.3-1.5,6.85-4.78,13.17-8,19.35l-17.74-.23c-6.36,3.83-12.12,9.39-18.49,12.81-11.3,6.06-33.83,3.09-37.5,18-1.88,7.66-.77,17.29-.6,25.19q-14.81,12.53-29.82,24.84c-3.15-3.32-6.24-6.79-9.56-9.94a119,119,0,0,0-12.11,8.55c-6,5-21,24.5-28.06,23.12-2.16-.42-4.32-2.17-6.13-3.38-9.07.11-22.4,14.55-33.73,16.57-1.51.27-3,.58-4.53.85-2.13,7.73-4.22,15.39-7.08,22.89-9.23,1.07-16.64,1.24-22.75,9.44-5.61,7.52-1.77,18.73-13,20.33-4,.58-7.65.52-11.38-1.09-1.79-3.15-2.08-4.49-.88-8,2.74-8,9.6-15.32,6.49-24.17-3.37-3.78-6.33-6.17-11.59-6.38-21.18-.89-33.52,22.6-51.18,29.41-5.65,2.19-20.39-.89-28.38.79-16.73-14.85-55.64-43.37-64.65-62.11s-13.51-42-19.9-62c-4-12.7-6.38-27.38-13.8-38.56-5-7.53-4-12.84-2.44-21.15-10.32-11-22.41-26.3-35.82-33.12-4-2-9.39-4.4-10.95-8.77a53.21,53.21,0,0,1-1.56-6c-8.77-8.83-25.94-.35-34-7.08,2.46-18,75.85-58.31,67.37-69.68-3-4.05-8.37-6.28-11.3-10.43-3.47-4.93-1.29-13.24-4.7-18.3-7.91-11.75-19.32-3.86-23.64-23.58-.73-3.3-1.93-7.29-1.62-10.68,0-.49.12-1,.18-1.47l3.28.86c.14,2-.15,3.56,1.12,5.19a171.84,171.84,0,0,1,8.63,16.88c6.52,1.71,14.1,2.93,17.54,9.49,2.38,4.52,2.61,11,3.2,16.06,6.6,5.41,15.06,10.51,16.26,19.58-5.42,16.32-52.84,48.41-67.71,62.53,7.15,0,16.2-.9,23,1.47,7.27,2.55,41.09,36.91,48.76,44.58,2.65,2.64,10.09,8.58,10,12.45-.07,2.19-.89,3.89-1.68,5.9-1,2.57-2.21,5-1.06,7.69a33.91,33.91,0,0,0,4.35,7c6,7.95,7.48,21.74,10.33,31.31,3.51,11.8,21.15,66.76,25.72,73.77,7.18,11,45.27,42.44,56.94,51.11,10.55-4.22,18.39.52,25.7-2.08,22.33-7.93,32.28-36.27,62-23.35,4.05,1.76,7.79,4.68,9.45,8.9a15.86,15.86,0,0,1-.91,12.63c-2.39,4.51-7.28,9.37-7.4,14.54,3,.87,3.65.23,6.48-.82,6.4-6,6.46-16.34,11.8-23.32,5.22-6.83,12.94-3.39,18.59-7.76,5.35-4.13,3.82-12.72,7.69-17.55,5.25-6.55,32.73-18,41.61-22.42l6.34,3.29c8.76-1,17.46-13.88,23.75-19.84,12.59-12,14.91-6.88,28.63-7.09,8.73-.13,16.73-10.06,22.65-15.69l.45-25.54,2.16-4.91,4.62-5.71,13.16-4.7c25.32-2.2,28.66-16.8,54.5-17.61,2.65-4.85,6.86-11.53,6.39-17.23a9.17,9.17,0,0,0-3.7-6.51c-6.88-5.19-23.07-2.39-31.22-.84-6.6,1.08-13.5.72-20.17.69-6.47-1.94-12.88-4.35-19.72-4-10.1-11.39,1.34-25.46-.79-39.21-2.54-16.36-16.33-25.21-23.14-39.13-7.77-15.86-4.2-38.49,1.1-54.43-11.35-11.68-25.71-18.74-37.59-29.75-8-7.4-34.92-37.47-34.77-47.71,0-2.62.68-4.83,2.8-6.57,1.86-1.53,5.63-3.24,8.11-3,9.32.88,16.74,11.39,22.36,18,21.2.06,34.72-6.86,54.66,4.22,4.22,7.52,6.82,15.91,9.73,24,10.83-6.9,19.48-9.49,32.18-10.63,6.65-.6,13.18-.35,18.44,4.2,1.83,1.57,3.76,3,5.67,4.44,6.59-1,9-9.44,16-10.94,13.35-2.84,26.87,23.61,35.23,31.9,6.42,6.37,14.25,11.22,21.76,16.2a41.44,41.44,0,0,0,10-6.77c5.41-11-3.56-23.86-3.39-35.38a11.85,11.85,0,0,1,4.4-9.51c5.9-4.66,14.13-3.86,21.12-3.33,4-5,8.84-11.56,14.86-14,11.27-4.61,25.57,3.12,36.14,7.12,10.79-3.77,21.85-4.73,32.53-8.16,6-1.93,11-7.07,17.06-8.51,6.27-1.5,12.54.06,18.88-2.06,3.43-3.66,2.78-7,3.22-11.9,6.24-10.84,15.94-4.36,22.57-11.18,4-4.15,1.82-7.74,8.43-10.82,5.59-.27,10.5,2.88,15.33,5.34,4.92-1,12.21-2,16.53-4.42,3.64-2,6.13-14,10.38-18,7.09-6.64,17.51-9.26,24.71-16,6.65-6.2,6-16,6.13-24.31,3-2.63,10.71-2.21,14.89-3.53,8.63-2.75,16.58-7.35,25.16-10.16,2.9-1,4.78-.5,7.42,1.06,7.08,4.19,19.54,18,21,26.07.55,3-7.09,41.72-8.54,45-2.86,6.4-8.24,12.58-12.41,18.22,11.44-.41,48,2.68,55.82,9.92,4.16,3.86,2.56,21.3,2.56,27l8.8,8.79c3.51,12.82,4.66,24.85,4.84,38-5.56,5.12-9.87,13.35-16,17.47-6.41,4.3-17.63,4.46-21.22,12.07,1.56,4.05,6.41,4.6,10.3,6.48,4.62,15.42-10.51,36-14.37,50.66-3.38,12.92-2.64,25.32-7.3,38.25,5.27,15.7,6,27.06,17.6,39.87-2.11,4.31-3.88,7.33-3.38,12.29,2.84,5.45,11,8.23,16.42,11,.5,15.26.06,30.66,0,45.93,8.5,5.85,14.24,14.49,20.35,22.65,17,5.34,24,12.73,36,25.19a144.16,144.16,0,0,1,33.93,7.61l5.39,10.83a120.77,120.77,0,0,1,34.26,21.84q.1-20.82.44-41.62c8.23-12.26,16.93-23.69,24.72-36.39-.48-10.73-1.31-21.68.38-32.35,3.48-22.09,9.06-14.65,21.06-24.48,10.14-8.31-1.83-14.46-1.29-22.69.54-8.49,6.26-18.67,7.09-29.2,3.67-5.29,8.22-10.2,12.36-15.16a87.05,87.05,0,0,1-7.53-30.15c-5.62-4.65-10.12-10.15-14.82-15.7l10-17.6c-6.45-22-16-62.69-27.79-80.81-2.77-4.28-6.76-7.76-10.54-11.14l13-14.38c.55-10.1.24-20.35.29-30.47-16.18-11.89-30.15-25.89-44.56-39.81-2.17-9.8-3.55-19.74-5.79-29.57,2-4,5.2-8.72,5.63-13.17.63-6.56-4.1-10.17-7.88-14.77-3-3.69-3.36-6.54-2.86-11.17,5.08-7.58,11.33-4.67,18.9-6.72C1720.69,866.79,1708.07,829,1717.82,810.44Z"/><g class="cls-4"><path class="cls-5" d="M1717.82,810.44l5.1-4.13c1.3.49,1.88.5,2.78,1.61-6.08,19-5,35.24-5.84,54.72A120.15,120.15,0,0,1,1705,879.16c-4.62.19-8.85-.47-12.75,2.13,1.82,18.45,13.7,10.3,3.3,38.16,1.75,8.54,3.12,17.42,5.7,25.74,14.7,12.24,26.35,26.31,42.7,36.65.07,14.85,3.46,36.45-5.47,48.55.16,2.18-.3,2.64,1.34,4.18,9,8.48,30.63,78.81,30.15,92.2-.2,5.71-4.57,9.51-8.23,13.45,4.19,3.83,8.78,7.61,12.6,11.79,1.7,13.77,7.85,27.61,7.37,41.31-3.91,4.28-8.09,8.46-11.39,13.24-1.1,8.1-4.22,17.52-4.27,25.54,0,6.82,3.78,15.64,2.74,22a8.89,8.89,0,0,1-3.92,5.67c-4.1,2.87-10.32,3.59-15.17,4.49-6.68,17.51-7.38,30.68-6.52,49.11-8.56,12.93-16.71,26.58-26.41,38.68-.08,9.6,2.67,33.78-3.71,40.22-14.37,1.82-42.36-27.1-57.11-33.61-5.91-2.61-13.19-3-19.54-3.65-3.26-3-6.61-5.91-9.73-9-8.72-8.75-20.62-14-30.43-21.45-7.7-5.85-13.68-13.45-22-18.49.21-15.54.73-31.14.56-46.67-7-4.22-16.64-8.88-19.65-17a43.6,43.6,0,0,1,1.87-9.33c-5.06-14.54-10.4-26.63-13.66-41.92,6.42-14.33,3.88-24.48,7.75-38.34,3-10.66,9.93-20.4,12.2-31.16a13.73,13.73,0,0,0-.57-8.59c-2.34-5.47-8.81-12.22-8.79-17.81,5.71-10,16.55-12.93,26.37-17.75,3.5-7.1,6.87-12.44,12.63-18-1.59-9-3.33-17.67-5.78-26.44l-9.48-8.84a248.39,248.39,0,0,1-1-26.44c-11.42.45-16,.07-25.24-6.81-8.77.49-17.58,1.89-25.92-1.45-1.92-2.06-3.17-2.71-3-5.81.37-9.15,9.86-20.35,12.79-29.44,3.54-10.93,3.09-22.51,6.84-33.59a102.21,102.21,0,0,1-15.1-19.17c-12.41.74-26,6.15-37.66,10.3-10.12,27.63-13.22,26.19-38.35,41.71-2.24,6.26-4.17,12.68-8,18.17-7.39,1.56-14.78,3.26-22.22,4.54-4.2-1.89-7.33-3.57-12.07-3.14-2.32,2.17-3.22,4.27-4.44,7.12-4.25,3.7-7.2,4-12.75,3.63l-3.39-.27c-2.79,1.4-4.94,2.47-5.93,5.69a30.35,30.35,0,0,0-.74,5.56c-.28,2.64-.67,6-2.71,7.81-4.74,4.3-18.51,2.5-24.83,2.78-15.79,13-25.61,7.39-39.63,16-2,1.2-3.91,2.36-5.83,3.6-9.81-3.67-28.56-13.44-38.88-9-5.67,2.4-5.93,11.63-11.41,14-7.79,3.42-20.73-4.39-24.31,7.37-4.59,15.07,17.83,30.24-2.67,43.7-3.28,2.16-7.37,3.59-11,5.07a126.36,126.36,0,0,1-22.08-16.27c-8.7-8.16-21.63-30-32.78-32.39-8,2.72-8.63,18.31-19.19,12.5-4.86-2.68-8.78-8-12.35-12.16a64.59,64.59,0,0,1-9.6,3.77c-4.83,1.25-10.3.43-15.27,1.35-7.29,1.35-12.42,6.72-20.39,5.64-3.59-2.29-4-3-5-7.15-1.86-7.26-2.18-12.77-9.41-17.1-13.11-7.86-34.54-2.59-49-1-4.43-5-13.75-17.74-20.44-18.51-.48-.06-1-.05-1.48-.07l-2.33,2.17c1.12,6.34,6.72,9.06,10.4,14,9,11.94,15.27,26,27.83,34.87,9.62,6.82,29.2,13,31.52,26.49,2.4,14-5.32,29.48-2.6,44.35,6.35,34.68,41.79,37.21,21.44,82.16,8.88,1,17.69,4,26.42,4.73,12.7,1,44.39-6.19,52.81,5.19,2.79,3.78,2.58,9,1.61,13.3-1.5,6.85-4.78,13.17-8,19.35l-17.74-.23c-6.36,3.83-12.12,9.39-18.49,12.81-11.3,6.06-33.83,3.09-37.5,18-1.88,7.66-.77,17.29-.6,25.19q-14.81,12.53-29.82,24.84c-3.15-3.32-6.24-6.79-9.56-9.94a119,119,0,0,0-12.11,8.55c-6,5-21,24.5-28.06,23.12-2.16-.42-4.32-2.17-6.13-3.38-9.07.11-22.4,14.55-33.73,16.57-1.51.27-3,.58-4.53.85-2.13,7.73-4.22,15.39-7.08,22.89-9.23,1.07-16.64,1.24-22.75,9.44-5.61,7.52-1.77,18.73-13,20.33-4,.58-7.65.52-11.38-1.09-1.79-3.15-2.08-4.49-.88-8,2.74-8,9.6-15.32,6.49-24.17-3.37-3.78-6.33-6.17-11.59-6.38-21.18-.89-33.52,22.6-51.18,29.41-5.65,2.19-20.39-.89-28.38.79-16.73-14.85-55.64-43.37-64.65-62.11s-13.51-42-19.9-62c-4-12.7-6.38-27.38-13.8-38.56-5-7.53-4-12.84-2.44-21.15-10.32-11-22.41-26.3-35.82-33.12-4-2-9.39-4.4-10.95-8.77a53.21,53.21,0,0,1-1.56-6c-8.77-8.83-25.94-.35-34-7.08,2.46-18,75.85-58.31,67.37-69.68-3-4.05-8.37-6.28-11.3-10.43-3.47-4.93-1.29-13.24-4.7-18.3-7.91-11.75-19.32-3.86-23.64-23.58-.73-3.3-1.93-7.29-1.62-10.68,0-.49.12-1,.18-1.47l3.28.86c.14,2-.15,3.56,1.12,5.19a171.84,171.84,0,0,1,8.63,16.88c6.52,1.71,14.1,2.93,17.54,9.49,2.38,4.52,2.61,11,3.2,16.06,6.6,5.41,15.06,10.51,16.26,19.58-5.42,16.32-52.84,48.41-67.71,62.53,7.15,0,16.2-.9,23,1.47,7.27,2.55,41.09,36.91,48.76,44.58,2.65,2.64,10.09,8.58,10,12.45-.07,2.19-.89,3.89-1.68,5.9-1,2.57-2.21,5-1.06,7.69a33.91,33.91,0,0,0,4.35,7c6,7.95,7.48,21.74,10.33,31.31,3.51,11.8,21.15,66.76,25.72,73.77,7.18,11,45.27,42.44,56.94,51.11,10.55-4.22,18.39.52,25.7-2.08,22.33-7.93,32.28-36.27,62-23.35,4.05,1.76,7.79,4.68,9.45,8.9a15.86,15.86,0,0,1-.91,12.63c-2.39,4.51-7.28,9.37-7.4,14.54,3,.87,3.65.23,6.48-.82,6.4-6,6.46-16.34,11.8-23.32,5.22-6.83,12.94-3.39,18.59-7.76,5.35-4.13,3.82-12.72,7.69-17.55,5.25-6.55,32.73-18,41.61-22.42l6.34,3.29c8.76-1,17.46-13.88,23.75-19.84,12.59-12,14.91-6.88,28.63-7.09,8.73-.13,16.73-10.06,22.65-15.69l.45-25.54,2.16-4.91,4.62-5.71,13.16-4.7c25.32-2.2,28.66-16.8,54.5-17.61,2.65-4.85,6.86-11.53,6.39-17.23a9.17,9.17,0,0,0-3.7-6.51c-6.88-5.19-23.07-2.39-31.22-.84-6.6,1.08-13.5.72-20.17.69-6.47-1.94-12.88-4.35-19.72-4-10.1-11.39,1.34-25.46-.79-39.21-2.54-16.36-16.33-25.21-23.14-39.13-7.77-15.86-4.2-38.49,1.1-54.43-11.35-11.68-25.71-18.74-37.59-29.75-8-7.4-34.92-37.47-34.77-47.71,0-2.62.68-4.83,2.8-6.57,1.86-1.53,5.63-3.24,8.11-3,9.32.88,16.74,11.39,22.36,18,21.2.06,34.72-6.86,54.66,4.22,4.22,7.52,6.82,15.91,9.73,24,10.83-6.9,19.48-9.49,32.18-10.63,6.65-.6,13.18-.35,18.44,4.2,1.83,1.57,3.76,3,5.67,4.44,6.59-1,9-9.44,16-10.94,13.35-2.84,26.87,23.61,35.23,31.9,6.42,6.37,14.25,11.22,21.76,16.2a41.44,41.44,0,0,0,10-6.77c5.41-11-3.56-23.86-3.39-35.38a11.85,11.85,0,0,1,4.4-9.51c5.9-4.66,14.13-3.86,21.12-3.33,4-5,8.84-11.56,14.86-14,11.27-4.61,25.57,3.12,36.14,7.12,10.79-3.77,21.85-4.73,32.53-8.16,6-1.93,11-7.07,17.06-8.51,6.27-1.5,12.54.06,18.88-2.06,3.43-3.66,2.78-7,3.22-11.9,6.24-10.84,15.94-4.36,22.57-11.18,4-4.15,1.82-7.74,8.43-10.82,5.59-.27,10.5,2.88,15.33,5.34,4.92-1,12.21-2,16.53-4.42,3.64-2,6.13-14,10.38-18,7.09-6.64,17.51-9.26,24.71-16,6.65-6.2,6-16,6.13-24.31,3-2.63,10.71-2.21,14.89-3.53,8.63-2.75,16.58-7.35,25.16-10.16,2.9-1,4.78-.5,7.42,1.06,7.08,4.19,19.54,18,21,26.07.55,3-7.09,41.72-8.54,45-2.86,6.4-8.24,12.58-12.41,18.22,11.44-.41,48,2.68,55.82,9.92,4.16,3.86,2.56,21.3,2.56,27l8.8,8.79c3.51,12.82,4.66,24.85,4.84,38-5.56,5.12-9.87,13.35-16,17.47-6.41,4.3-17.63,4.46-21.22,12.07,1.56,4.05,6.41,4.6,10.3,6.48,4.62,15.42-10.51,36-14.37,50.66-3.38,12.92-2.64,25.32-7.3,38.25,5.27,15.7,6,27.06,17.6,39.87-2.11,4.31-3.88,7.33-3.38,12.29,2.84,5.45,11,8.23,16.42,11,.5,15.26.06,30.66,0,45.93,8.5,5.85,14.24,14.49,20.35,22.65,17,5.34,24,12.73,36,25.19a144.16,144.16,0,0,1,33.93,7.61l5.39,10.83a120.77,120.77,0,0,1,34.26,21.84q.1-20.82.44-41.62c8.23-12.26,16.93-23.69,24.72-36.39-.48-10.73-1.31-21.68.38-32.35,3.48-22.09,9.06-14.65,21.06-24.48,10.14-8.31-1.83-14.46-1.29-22.69.54-8.49,6.26-18.67,7.09-29.2,3.67-5.29,8.22-10.2,12.36-15.16a87.05,87.05,0,0,1-7.53-30.15c-5.62-4.65-10.12-10.15-14.82-15.7l10-17.6c-6.45-22-16-62.69-27.79-80.81-2.77-4.28-6.76-7.76-10.54-11.14l13-14.38c.55-10.1.24-20.35.29-30.47-16.18-11.89-30.15-25.89-44.56-39.81-2.17-9.8-3.55-19.74-5.79-29.57,2-4,5.2-8.72,5.63-13.17.63-6.56-4.1-10.17-7.88-14.77-3-3.69-3.36-6.54-2.86-11.17,5.08-7.58,11.33-4.67,18.9-6.72C1720.69,866.79,1708.07,829,1717.82,810.44Z"/></g><path class="cls-2" d="M657.82,903.27l1.6,2.81c.12.23.24.4.39.64l.37.55a8.15,8.15,0,0,1,1,1.94Zm0,0-2.24,2.34m2.24-2.34-2.24,2.34m0,0-1.15,1.24c-.77.85-1.47,1.61-2.26,2.33a8.81,8.81,0,0,1-3.39,2.06l-2.32.71.72,2.31c.63,2,.84,5.65.62,10.46S647,935,646.18,940.56a281.14,281.14,0,0,1-5.31,27.88l-.21.8.32.76c6.29,14.66,9.7,23.35,7.49,39.15l-.1.72.31.66a50.25,50.25,0,0,0,4.46,7.13c.86,1.21,1.77,2.44,2.68,3.66l0,.06c.9,1.21,1.79,2.41,2.66,3.62a60.19,60.19,0,0,1,4.53,7.09,15.71,15.71,0,0,1,2,6l.1,1.73,1.68.44,1.56.41c0,.36,0,.76.09,1.16a7.17,7.17,0,0,0,1.46,3.63l2.06,2.65,1.85-2.81,4.7-7.19.42-.64,0-.76a17.12,17.12,0,0,0-2.79-8,57.34,57.34,0,0,0-5.68-7.55c-1.37-1.59-2.84-3.2-4.24-4.74l-2.15-2.38a65.29,65.29,0,0,1-4.43-5.35l2.8-15,.13-.71-.28-.66c-.58-1.38-1.18-2.71-1.78-4.06-.84-1.87-1.68-3.77-2.49-5.78a39.08,39.08,0,0,1-2.74-9.61c0-.34-.06-.63-.08-.95s0-.51-.07-.84h0m.44-65.53-.44,65.53m0,0c-1.21-13.47.85-28.88,2.72-42.79,0-.35.09-.69.13-1Zm3.65-47.33a35.2,35.2,0,0,0-.8,3.51Zm0,0,.48-1.76m-.48,1.76.48-1.76m0,0c.27-1,.57-2.14.85-3.21m-.85,3.21.85-3.21m0,0c.43-1.73.85-3.51,1.08-5.09m-1.08,5.09,1.08-5.09m0,0a10.67,10.67,0,0,0-.07-4.54Z"/><path class="cls-3" d="M366.37,126.08c5.08-17,11.77-27.82,27.71-36.59,5.08-2.8,11.06-5.09,16.88-3.34s9.39,7.17,11.85,12.26c6.77,14,11.79,65.49,27.09,69.63,9,2.43,29.29-1.45,38-4.83,16.33,4.85,35.45,8.14,50.89,13.57,21.6,7.59,48.16,25.45,59.07,45.85a44.39,44.39,0,0,1,4.42,12.85c.54,2.59,1.2,5.17,1.79,7.76l-6.14,13.32c4.35,7.78,11.89,24.13,21.13,26.5,20.07,5.16,72.93-1.9,94.3-5.89,10.67-2,21-5.51,31.65-7.84a301.13,301.13,0,0,1,45.43-6c10.13-.57,20.84,2.57,31,3.27s23.68.27,31,8.61c.93,4.89.67,9.57.47,14.5C878.43,308.64,904,319,935,325.42c10.64,2.19,21.51,3.37,31.85,6.81,12.37-4.3,18.89-4.15,31.72-1.61,2.83-4.51,6.16-11.23,10.54-14.3,6.56-4.59,16.3-5.36,23.59-9.1,10.09-5.19,19.5-13.46,29.12-19.71-4.92-5.74-11.45-11.51-10.81-19.68.11-1.48,1.48-2.64,2.36-3.8,7.77-3.31,14.46-.43,22,2.08,4.56-2.21,7.54-3.63,12.75-3.29,13.72.88,40.86,1.57,54,.95s26.65-4.64,39.73-6.48c10.08-1.43,20.27-.67,30.38-1.56,10.33-.92,20.45-3.29,30.83-3.85,16.29-.87,32,3.73,48.32,3.49,11.43-.15,34.37-5.57,43.08,2.64.21,2.77.38,3.53-1.44,5.88-6.8,8.74-32.56,8.78-42.81,10.05l-10.86,9.26c-21.64-.25-42.77-3.84-64.37-1l1.19.49a48.13,48.13,0,0,0,9.37,2.79c6.27,1.18,15.42,6.91,19.2,12,1.39,1.9,1.51,3.18.93,5.47a17.39,17.39,0,0,1-2,3.84c.79,3.25.93,3.18,3.61,5.22,5.38.4,10.55.2,14.3,4.63,7.38,8.69,9,24.13,10.92,35,7.69-7.32,19.07-18.52,30.61-17.68,13.07.95,16.39,22.73,29.88,23.47,3.28.18,5.86-2.86,8.66-3.3,4.76-.77,8,3.56,12.74,1.8,1.58-3.73,2-6.07,5.52-8.34,6.45-.43,11.24,3.68,16.36,7.12,4.88,5.63,9.48,15.21,15.21,19.27,5.94-1.12,7.56-1.18,12.63,2.32,12.62,8.73,10.2,10.84,28,8.23,6.37,6.37,26.4,20.42,26.63,29.9.16,6.65-9.52,9.72-9.2,14.4,5.39.47,11.27.34,14.93,5,2.35,3,5.41,8.14,4.82,11.82l-1.9.64c-4.45-4.14-7.45-9.15-14.3-8.85-2.45.11-3.24,1-5.27,2.39L1446,444l.89,2.15c4.28,1.19,10.42.8,13.4,3.8-.63,2.9-.49,3.24-2.73,5.11-3.69-1-6.82-2.79-10.38-1.17-.06,5.15,2,8.88.19,13.82-2.69,1.81-4.94,2.62-8.23,1.84-5.5-1.3-12.28-7.07-17.77-6.12-2.56,2.15-3.5,2.52-4.43,5.81,3.14,4.74,4.6,9.47,10.09,11.17,4.81-1.64,9-3.95,13.86-1.81,1,2.06,1.2,2,.49,4.27-2,6.25-7.3,12.51-11.07,17.91,10.07-.34,23.47.68,32.14-5.05q1.68-4.79,3.15-9.63c3.39.29,6.87,3.09,9.25,5.49a8.47,8.47,0,0,1,1.68,2.83l-.8.35a13.09,13.09,0,0,0-4.92,3.13c2.78,4,8.82,4.45,13.37,5.25,4.19.74,8.44,1.81,12.68,1.08,1.66-2.43,2-4.45,2.38-7.27,3.06-3.35,8.65-4.08,13-4.27,16.74-.68,38.92,8.54,50.71,20.28a67.7,67.7,0,0,1,8.18,10.65c5.53-6.21,10.51-11.67,19.47-12,18.36-.78,49.84,22.6,62.4,35.31,7.63,7.7,14.15,16.44,21.66,24.27,15,15.64,42.29,37.67,52.71,55.49,4.81,8.2,4,17.88,9.19,26.57.14.23.27.47.41.71-2.4,3-2.52,3.3-6.41,4.38-5.07-9.74-5.69-22.35-11.21-31.06-12.87-20.28-34.44-35.75-51-52.87-10.48-10.81-18.44-23.47-30.89-32.39-11.43-8.2-35.28-26.17-50-23-8.08,1.77-12.16,9.34-16.06,15.84-6.15-8.89-11.37-15.64-19.94-22.25-7.39-5.7-15.73-11.23-25.44-10l-.8,1.26c3.45,2.5,6.63,4.62,9.15,8.13l-.61,2.24c-11.31,5.56-20.1-5.39-31.49-5.43-2,1.29-4.73,3.29-7.14,3.73-7.1,1.3-31.7-8.49-49.39-5.81-3.62.56-5.29.46-7.53,3.55.26,3.14,1,6.27-.74,9.08-7.85,1.76-14.32-1.64-21.3-4.88-28.17-13.11-1.15-27.05-5.29-38.46-7.07-.49-12.28,5.29-19,3.78l-1-2.93c3.56-10.93,21.75-8.35,31.89-24.73-1.21-2.47-13.28-.33-17.24-2.34l-.73-3c3-14.71,34.79-22.27,45-32.32.77-4,1.41-4.3-.87-7.83l-1.36.55c-.4.18-.79.4-1.2.58-4.21,1.79-6.33,2.13-10.55.51-3.49-4.07-3-9.68-3.39-14.82-49.73,1-36.41-17.57-56.74-22.61l-4,4c-9.24-.32-16.6-11.05-26.47-12,.74,3.38,1.61,4.66.06,7.84-16,5.92-28.52-26.17-45.56-27.54-9.07-.72-14.46,9.31-20.72,14.48-3.54.82-5,1-8.29-.83-8.19-4.73-7.49-20.1-10.45-28.21-1.72-4.7-4.27-7.84-8.86-9.83-3.8,1.9-3.6,6.71-6.89,9.74-14.47-6.22-3.06-22.05-10.27-31.52-5.2-.93-7.61,3.4-12.76,2.78-4.49-5.73-9.11-11.37-12.64-17.77-1-1.84-.27-2.51.28-4.46,12.63-11.36,50-1.92,67.26-2.06a69.73,69.73,0,0,1,19.22-11.92c-20.76-1.93-41.49-3-62.21-5.46-5.77,2.83-11.33,6.37-16.9,9.59-26.2-13.55-51.94,2.43-78.9,3.7-9.46.44-18.88-4.48-28.17-3.15-3.62.52-6.42,1.49-8.5,4.44,3.78,3.49,13.41,4.66,18.57,5.91a16.56,16.56,0,0,1,5,7.64c-1.6,3-4.19,3.2-7.19,4.63-18.89,9.09-43.84-2.44-50.42.95-.38.19-.74.43-1.13.64-21,11.81-21.36,27.12-49.59,26.14-21.16,30-21.64,10.85-50.48,20.78-22.74-9.37-50.2-10.91-74.18-19-13.22-4.48-40.87-17.88-46.83-31.39-1.46-3.3-.08-5.13,1-8.31a10.84,10.84,0,0,0-.69-1c-3-3.25-9.76-5.58-14-5.87-14.73,6.57-30.85-4.16-47-2.94-38.37,2.89-134,28.64-165.11,20.1-13.13-3.61-21.09-21.31-27.16-32.47,2-8.31,4.53-26.59.08-34.08-11.1-18.71-38.51-36.17-59.27-42.28-15.18-4.46-28.63-5.82-43.49-12.45-12.37,5.78-26.82,4.5-40,8.47-2-2.12-4-4.36-6.55-5.83-5.19-3-11.79,9.84-18.12,11.07-6.67,1.3-13.68-4.88-18.64-8.51-8.41,3.78-16.15,8.88-24.62,12.54-12.41,5.36-25.67,8-36.94,15.71-21.05-1.61-38.35,5.57-56.84,14.86-9.19,4.62-52.2,29.07-56.74,36.41-2.92,4.73,2.37,10.31,2,14.73-.18,1.92-1.56,4.72-2.19,6.63,1.56,4.76,5.63,4.85,8.48,8.48,2,2.55.33,13.83,4.5,20.72C276,358.75,290.75,348.34,282,417.23c-12.65,14.31-24,28.09-42.28,35.26-9,3.51-20.66,6.95-29.89,2.53-6.56-3.15-10.14-9.23-12.6-15.79-6-16-.75-7.67,3.88-18-5.79-11.38-17-9.95-24.07-18.55-3.9-4.74-2.52-9.68-2.24-15.36-4.47-3.91-10.28-8.25-13.35-13.36a15,15,0,0,1-2-12.13c6.07-23.38,42.26-57,55.79-79.1,3.29-5.37,4.85-11.87,6.58-17.88-19.43-22.53-11.11-27.19-20.74-44.15-6.81-12-17.43-21.62-21.82-35a35,35,0,0,1-1-3.47,35.06,35.06,0,0,1-.87-7.15,33.3,33.3,0,0,1,.11-3.6c.09-1.2.25-2.39.46-3.58s.5-2.35.83-3.5a36,36,0,0,1,1.17-3.41c.45-1.12,1-2.21,1.51-3.27l.82-.4c4.12-2,7.63-3.88,12.06-2.36l.85,2.35c-5.33,2.85-8.2,5.53-10.11,11.39-2.54,7.81.21,15.58,4,22.42,8.18,14.68,21.4,24.67,34.64,34.46-5.75,5.6-10.33,11.18-10.13,19.82a7.38,7.38,0,0,0,1,3.24c3.07,2.13,3.74,2.2,7.3,2.5,9.44-5.45,10.14-17,15-20.68s16.08-2.39,22.28-5c17.44-7.33,33-18.56,50.95-25.27,8.37-3.12,17.66-2.94,26.35-4.69,24.68-5,46.35-15.83,66.08-31.2,6.31,4,13.83,10.31,21.64,10.06,2.76-2.28,3.79-3.46,3.81-7.25,0-4.64-2.07-10.79-3-15.47-10.69,5.45-33.07,14-45.16,10.15a9.71,9.71,0,0,1-6.22-5.07c-2.05-4-.37-10.78.22-15.09ZM226,280.29c-.26.54-.52,1.08-.79,1.61-11.28,22.11-58.15,61.86-59.8,83.93,2.83,7.46,10.82,10.49,14.51,17,2,3.54.66,8.81,2.47,12.45,3.78,7.6,21.29,17,28.49,22-3.29,6.15-9.44,14.88-6.77,22.18,1.61,4.42,5.32,7.5,9,10.22,13.26,1.5,30.7-4.8,41.06-12.88,8-6.28,16.26-16.1,22.21-24.4.76-11.19,3.95-25.59,2.4-36.37-2.34-16.26-33.23-56.29-43.61-72.68-4.19-6.61-2.34-15.59-6.42-20.73A10,10,0,0,0,226,280.29ZM404.47,92.4c-15.61,6.24-25,17.3-32.32,32.06,3.83,5.57,7.93,10.44,8.51,17.36.35,4.22.62,8.4.7,12.63l2.12,1.56,5.4-1.23c12.67-2.54,25.95-4.37,37.85-9.46-.6-14.52-3-39.18-14.1-49.74C410.35,93.41,407.49,92.79,404.47,92.4Zm668.62,185.79c.24,3.1,0,4,2.41,6.22,5.92,5.47,21.8,3.58,29.42,3a34.19,34.19,0,0,0,6.94-1.27c-4.91-5.36-18.07-6.85-25.22-7.14C1082,278.78,1077.68,278.94,1073.09,278.19Z"/><g class="cls-6"><path class="cls-5" d="M366.37,126.08c5.08-17,11.77-27.82,27.71-36.59,5.08-2.8,11.06-5.09,16.88-3.34s9.39,7.17,11.85,12.26c6.77,14,11.79,65.49,27.09,69.63,9,2.43,29.29-1.45,38-4.83,16.33,4.85,35.45,8.14,50.89,13.57,21.6,7.59,48.16,25.45,59.07,45.85a44.39,44.39,0,0,1,4.42,12.85c.54,2.59,1.2,5.17,1.79,7.76l-6.14,13.32c4.35,7.78,11.89,24.13,21.13,26.5,20.07,5.16,72.93-1.9,94.3-5.89,10.67-2,21-5.51,31.65-7.84a301.13,301.13,0,0,1,45.43-6c10.13-.57,20.84,2.57,31,3.27s23.68.27,31,8.61c.93,4.89.67,9.57.47,14.5C878.43,308.64,904,319,935,325.42c10.64,2.19,21.51,3.37,31.85,6.81,12.37-4.3,18.89-4.15,31.72-1.61,2.83-4.51,6.16-11.23,10.54-14.3,6.56-4.59,16.3-5.36,23.59-9.1,10.09-5.19,19.5-13.46,29.12-19.71-4.92-5.74-11.45-11.51-10.81-19.68.11-1.48,1.48-2.64,2.36-3.8,7.77-3.31,14.46-.43,22,2.08,4.56-2.21,7.54-3.63,12.75-3.29,13.72.88,40.86,1.57,54,.95s26.65-4.64,39.73-6.48c10.08-1.43,20.27-.67,30.38-1.56,10.33-.92,20.45-3.29,30.83-3.85,16.29-.87,32,3.73,48.32,3.49,11.43-.15,34.37-5.57,43.08,2.64.21,2.77.38,3.53-1.44,5.88-6.8,8.74-32.56,8.78-42.81,10.05l-10.86,9.26c-21.64-.25-42.77-3.84-64.37-1l1.19.49a48.13,48.13,0,0,0,9.37,2.79c6.27,1.18,15.42,6.91,19.2,12,1.39,1.9,1.51,3.18.93,5.47a17.39,17.39,0,0,1-2,3.84c.79,3.25.93,3.18,3.61,5.22,5.38.4,10.55.2,14.3,4.63,7.38,8.69,9,24.13,10.92,35,7.69-7.32,19.07-18.52,30.61-17.68,13.07.95,16.39,22.73,29.88,23.47,3.28.18,5.86-2.86,8.66-3.3,4.76-.77,8,3.56,12.74,1.8,1.58-3.73,2-6.07,5.52-8.34,6.45-.43,11.24,3.68,16.36,7.12,4.88,5.63,9.48,15.21,15.21,19.27,5.94-1.12,7.56-1.18,12.63,2.32,12.62,8.73,10.2,10.84,28,8.23,6.37,6.37,26.4,20.42,26.63,29.9.16,6.65-9.52,9.72-9.2,14.4,5.39.47,11.27.34,14.93,5,2.35,3,5.41,8.14,4.82,11.82l-1.9.64c-4.45-4.14-7.45-9.15-14.3-8.85-2.45.11-3.24,1-5.27,2.39L1446,444l.89,2.15c4.28,1.19,10.42.8,13.4,3.8-.63,2.9-.49,3.24-2.73,5.11-3.69-1-6.82-2.79-10.38-1.17-.06,5.15,2,8.88.19,13.82-2.69,1.81-4.94,2.62-8.23,1.84-5.5-1.3-12.28-7.07-17.77-6.12-2.56,2.15-3.5,2.52-4.43,5.81,3.14,4.74,4.6,9.47,10.09,11.17,4.81-1.64,9-3.95,13.86-1.81,1,2.06,1.2,2,.49,4.27-2,6.25-7.3,12.51-11.07,17.91,10.07-.34,23.47.68,32.14-5.05q1.68-4.79,3.15-9.63c3.39.29,6.87,3.09,9.25,5.49a8.47,8.47,0,0,1,1.68,2.83l-.8.35a13.09,13.09,0,0,0-4.92,3.13c2.78,4,8.82,4.45,13.37,5.25,4.19.74,8.44,1.81,12.68,1.08,1.66-2.43,2-4.45,2.38-7.27,3.06-3.35,8.65-4.08,13-4.27,16.74-.68,38.92,8.54,50.71,20.28a67.7,67.7,0,0,1,8.18,10.65c5.53-6.21,10.51-11.67,19.47-12,18.36-.78,49.84,22.6,62.4,35.31,7.63,7.7,14.15,16.44,21.66,24.27,15,15.64,42.29,37.67,52.71,55.49,4.81,8.2,4,17.88,9.19,26.57.14.23.27.47.41.71-2.4,3-2.52,3.3-6.41,4.38-5.07-9.74-5.69-22.35-11.21-31.06-12.87-20.28-34.44-35.75-51-52.87-10.48-10.81-18.44-23.47-30.89-32.39-11.43-8.2-35.28-26.17-50-23-8.08,1.77-12.16,9.34-16.06,15.84-6.15-8.89-11.37-15.64-19.94-22.25-7.39-5.7-15.73-11.23-25.44-10l-.8,1.26c3.45,2.5,6.63,4.62,9.15,8.13l-.61,2.24c-11.31,5.56-20.1-5.39-31.49-5.43-2,1.29-4.73,3.29-7.14,3.73-7.1,1.3-31.7-8.49-49.39-5.81-3.62.56-5.29.46-7.53,3.55.26,3.14,1,6.27-.74,9.08-7.85,1.76-14.32-1.64-21.3-4.88-28.17-13.11-1.15-27.05-5.29-38.46-7.07-.49-12.28,5.29-19,3.78l-1-2.93c3.56-10.93,21.75-8.35,31.89-24.73-1.21-2.47-13.28-.33-17.24-2.34l-.73-3c3-14.71,34.79-22.27,45-32.32.77-4,1.41-4.3-.87-7.83l-1.36.55c-.4.18-.79.4-1.2.58-4.21,1.79-6.33,2.13-10.55.51-3.49-4.07-3-9.68-3.39-14.82-49.73,1-36.41-17.57-56.74-22.61l-4,4c-9.24-.32-16.6-11.05-26.47-12,.74,3.38,1.61,4.66.06,7.84-16,5.92-28.52-26.17-45.56-27.54-9.07-.72-14.46,9.31-20.72,14.48-3.54.82-5,1-8.29-.83-8.19-4.73-7.49-20.1-10.45-28.21-1.72-4.7-4.27-7.84-8.86-9.83-3.8,1.9-3.6,6.71-6.89,9.74-14.47-6.22-3.06-22.05-10.27-31.52-5.2-.93-7.61,3.4-12.76,2.78-4.49-5.73-9.11-11.37-12.64-17.77-1-1.84-.27-2.51.28-4.46,12.63-11.36,50-1.92,67.26-2.06a69.73,69.73,0,0,1,19.22-11.92c-20.76-1.93-41.49-3-62.21-5.46-5.77,2.83-11.33,6.37-16.9,9.59-26.2-13.55-51.94,2.43-78.9,3.7-9.46.44-18.88-4.48-28.17-3.15-3.62.52-6.42,1.49-8.5,4.44,3.78,3.49,13.41,4.66,18.57,5.91a16.56,16.56,0,0,1,5,7.64c-1.6,3-4.19,3.2-7.19,4.63-18.89,9.09-43.84-2.44-50.42.95-.38.19-.74.43-1.13.64-21,11.81-21.36,27.12-49.59,26.14-21.16,30-21.64,10.85-50.48,20.78-22.74-9.37-50.2-10.91-74.18-19-13.22-4.48-40.87-17.88-46.83-31.39-1.46-3.3-.08-5.13,1-8.31a10.84,10.84,0,0,0-.69-1c-3-3.25-9.76-5.58-14-5.87-14.73,6.57-30.85-4.16-47-2.94-38.37,2.89-134,28.64-165.11,20.1-13.13-3.61-21.09-21.31-27.16-32.47,2-8.31,4.53-26.59.08-34.08-11.1-18.71-38.51-36.17-59.27-42.28-15.18-4.46-28.63-5.82-43.49-12.45-12.37,5.78-26.82,4.5-40,8.47-2-2.12-4-4.36-6.55-5.83-5.19-3-11.79,9.84-18.12,11.07-6.67,1.3-13.68-4.88-18.64-8.51-8.41,3.78-16.15,8.88-24.62,12.54-12.41,5.36-25.67,8-36.94,15.71-21.05-1.61-38.35,5.57-56.84,14.86-9.19,4.62-52.2,29.07-56.74,36.41-2.92,4.73,2.37,10.31,2,14.73-.18,1.92-1.56,4.72-2.19,6.63,1.56,4.76,5.63,4.85,8.48,8.48,2,2.55.33,13.83,4.5,20.72C276,358.75,290.75,348.34,282,417.23c-12.65,14.31-24,28.09-42.28,35.26-9,3.51-20.66,6.95-29.89,2.53-6.56-3.15-10.14-9.23-12.6-15.79-6-16-.75-7.67,3.88-18-5.79-11.38-17-9.95-24.07-18.55-3.9-4.74-2.52-9.68-2.24-15.36-4.47-3.91-10.28-8.25-13.35-13.36a15,15,0,0,1-2-12.13c6.07-23.38,42.26-57,55.79-79.1,3.29-5.37,4.85-11.87,6.58-17.88-19.43-22.53-11.11-27.19-20.74-44.15-6.81-12-17.43-21.62-21.82-35a35,35,0,0,1-1-3.47,35.06,35.06,0,0,1-.87-7.15,33.3,33.3,0,0,1,.11-3.6c.09-1.2.25-2.39.46-3.58s.5-2.35.83-3.5a36,36,0,0,1,1.17-3.41c.45-1.12,1-2.21,1.51-3.27l.82-.4c4.12-2,7.63-3.88,12.06-2.36l.85,2.35c-5.33,2.85-8.2,5.53-10.11,11.39-2.54,7.81.21,15.58,4,22.42,8.18,14.68,21.4,24.67,34.64,34.46-5.75,5.6-10.33,11.18-10.13,19.82a7.38,7.38,0,0,0,1,3.24c3.07,2.13,3.74,2.2,7.3,2.5,9.44-5.45,10.14-17,15-20.68s16.08-2.39,22.28-5c17.44-7.33,33-18.56,50.95-25.27,8.37-3.12,17.66-2.94,26.35-4.69,24.68-5,46.35-15.83,66.08-31.2,6.31,4,13.83,10.31,21.64,10.06,2.76-2.28,3.79-3.46,3.81-7.25,0-4.64-2.07-10.79-3-15.47-10.69,5.45-33.07,14-45.16,10.15a9.71,9.71,0,0,1-6.22-5.07c-2.05-4-.37-10.78.22-15.09ZM226,280.29c-.26.54-.52,1.08-.79,1.61-11.28,22.11-58.15,61.86-59.8,83.93,2.83,7.46,10.82,10.49,14.51,17,2,3.54.66,8.81,2.47,12.45,3.78,7.6,21.29,17,28.49,22-3.29,6.15-9.44,14.88-6.77,22.18,1.61,4.42,5.32,7.5,9,10.22,13.26,1.5,30.7-4.8,41.06-12.88,8-6.28,16.26-16.1,22.21-24.4.76-11.19,3.95-25.59,2.4-36.37-2.34-16.26-33.23-56.29-43.61-72.68-4.19-6.61-2.34-15.59-6.42-20.73A10,10,0,0,0,226,280.29ZM404.47,92.4c-15.61,6.24-25,17.3-32.32,32.06,3.83,5.57,7.93,10.44,8.51,17.36.35,4.22.62,8.4.7,12.63l2.12,1.56,5.4-1.23c12.67-2.54,25.95-4.37,37.85-9.46-.6-14.52-3-39.18-14.1-49.74C410.35,93.41,407.49,92.79,404.47,92.4Zm668.62,185.79c.24,3.1,0,4,2.41,6.22,5.92,5.47,21.8,3.58,29.42,3a34.19,34.19,0,0,0,6.94-1.27c-4.91-5.36-18.07-6.85-25.22-7.14C1082,278.78,1077.68,278.94,1073.09,278.19Z"/></g><rect id="rect2" class="cls-7" x="454.44" y="923.67" width="151.39" height="40.74"/><rect id="rect4" class="cls-8" x="272" y="923.67" width="151.39" height="40.74"/><rect id="rect6" class="cls-9" x="89.56" y="923.67" width="151.39" height="40.74"/><path d="M90.58,554.56h91.08v134.6H316V554.56h91.07V907.73H316V758H181.66V907.73H90.58Z"/><path d="M496,554.56H741.81V623.4H587.11v65.76H732.58V758H587.11v80.9H747v68.84H496Z"/><path d="M827,554.56H918V838.89H1078v68.84H827Z"/><path d="M1135.67,554.56h151.16q67.41,0,103.49,29.92t36.07,85.28q0,55.59-36.07,85.51T1286.83,785.2h-60.09V907.73h-91.07Zm91.07,66V719.2h50.39q26.49,0,40.92-12.89t14.43-36.55q0-23.65-14.43-36.43t-40.92-12.77Z"/>
</svg>
